<svg width="475" height="304" viewBox="0 0 475 304" fill="none" xmlns="http://www.w3.org/2000/svg">
<g clip-path="url(#clip0_10_0)">
<path d="M2.2513 79.6324C0.270171 64.5773 13.4384 49.3216 28.6433 49.0588C35.9236 48.9343 43.3355 51.7213 50.3526 49.7988C65.4604 45.6495 68.0996 23.9623 81.6558 16.127C91.0211 10.7122 103.76 13.838 111.31 21.5765C118.861 29.315 121.805 40.6495 121.542 51.4516C120.849 78.7541 99.5067 104.176 72.6922 109.542C45.8777 114.909 5.98497 105.579 2.18896 79.0377" fill="#EBEBEB"/>
<path d="M178.451 22.8495C180.183 12.0989 172.858 1.98151 162.089 0.251833C151.321 -1.47785 141.187 5.83512 139.454 16.5858C137.722 27.3365 145.047 37.4539 155.815 39.1835C166.584 40.9132 176.718 33.6002 178.451 22.8495Z" fill="#EBEBEB"/>
<path d="M451.767 92.6682C451.333 92.552 450.89 92.471 450.444 92.4261C449.608 92.3225 448.761 92.3365 447.929 92.4676C438.827 93.1039 430.293 100.6 429.268 109.756C428.09 120.372 437.206 131.001 447.901 131.464C458.597 131.928 468.592 122.135 468.35 111.451C468.142 102.405 460.571 94.321 451.767 92.6682Z" fill="#EBEBEB"/>
<path d="M191.525 274.547C192.26 274.72 192.953 275.038 193.563 275.484C194.172 275.929 194.685 276.493 195.072 277.14C195.841 278.443 196.298 279.906 196.409 281.414C196.714 284.305 195.716 287.513 194.497 290.148C191.657 288.599 190.341 285.093 189.738 283.274C188.838 280.397 188.955 274.657 191.525 274.547Z" fill="#51BEE5"/>
<path d="M198.293 294.228C197.953 293.457 197.823 292.609 197.917 291.771C198.011 290.933 198.324 290.135 198.826 289.457C199.34 288.788 199.982 288.228 200.715 287.809C201.447 287.39 202.256 287.12 203.093 287.015C203.475 286.929 203.87 286.926 204.252 287.006C204.635 287.086 204.996 287.247 205.31 287.479C205.559 287.745 205.734 288.071 205.816 288.426C205.899 288.78 205.887 289.15 205.781 289.498C205.557 290.192 205.153 290.815 204.61 291.303C202.83 293.053 200.78 294.415 198.293 294.228" fill="#51BEE5"/>
<path d="M197.143 303.592C197.112 303.393 197.098 303.192 197.102 302.99C197.102 302.568 197.067 302.015 197.046 301.358C196.925 299.553 197.101 297.74 197.566 295.992C198.06 294.235 199.017 292.642 200.336 291.379C200.741 291.005 201.188 290.678 201.666 290.404C201.833 290.307 201.971 290.252 202.068 290.204C202.165 290.155 202.207 290.141 202.214 290.148C201.579 290.533 200.985 290.98 200.44 291.483C199.184 292.76 198.27 294.332 197.78 296.054C197.327 297.784 197.133 299.572 197.205 301.358C197.205 302.05 197.205 302.603 197.205 302.99C197.207 303.193 197.186 303.394 197.143 303.592Z" fill="#263238"/>
<path d="M191.823 278.952C191.859 279.032 191.887 279.115 191.906 279.201C191.955 279.388 192.024 279.623 192.107 279.892C192.28 280.515 192.523 281.421 192.8 282.548C193.375 284.796 194.116 287.914 194.878 291.372C195.64 294.83 196.229 297.984 196.637 300.266C196.838 301.407 196.991 302.34 197.095 302.977C197.136 303.281 197.178 303.523 197.205 303.716C197.215 303.802 197.215 303.887 197.205 303.972C197.176 303.892 197.155 303.808 197.143 303.723L196.991 302.99C196.866 302.299 196.686 301.414 196.464 300.293C196.021 298.018 195.398 294.878 194.649 291.414C193.901 287.949 193.181 284.837 192.647 282.583C192.384 281.476 192.17 280.57 192.017 279.913L191.851 279.18C191.83 279.042 191.809 278.952 191.823 278.952Z" fill="#263238"/>
<path d="M194.546 296.856C193.882 295.206 192.834 293.738 191.488 292.574C190.143 291.41 188.538 290.583 186.808 290.162C185.928 289.955 184.834 289.934 184.307 290.667C183.781 291.4 184.162 292.437 184.668 293.184C185.743 294.738 187.254 295.939 189.013 296.635C190.771 297.332 192.696 297.493 194.546 297.098" fill="#51BEE5"/>
<path d="M187.785 292.755C187.972 292.776 188.158 292.813 188.339 292.866C188.555 292.911 188.768 292.972 188.976 293.046C189.219 293.129 189.51 293.205 189.807 293.336C190.105 293.468 190.438 293.599 190.777 293.779C191.141 293.963 191.495 294.166 191.837 294.387C192.621 294.904 193.345 295.505 193.998 296.179C194.635 296.866 195.191 297.625 195.654 298.44C195.858 298.794 196.038 299.162 196.194 299.54C196.337 299.866 196.46 300.201 196.561 300.542C196.656 300.818 196.733 301.1 196.79 301.386C196.848 301.599 196.89 301.816 196.915 302.036C196.955 302.222 196.976 302.412 196.977 302.603C196.928 302.603 196.838 301.808 196.423 300.584C196.312 300.286 196.201 299.954 196.035 299.609C195.869 299.263 195.688 298.917 195.488 298.537C195.021 297.742 194.471 297.001 193.846 296.324C193.217 295.663 192.52 295.07 191.768 294.553C191.433 294.33 191.086 294.124 190.729 293.938C190.421 293.767 190.104 293.612 189.78 293.475C188.561 292.97 187.771 292.797 187.785 292.755Z" fill="#263238"/>
<path d="M412.103 296.282C412.366 295.266 411.701 294.249 410.953 293.516C410.205 292.783 409.311 292.133 408.923 291.144C408.293 289.567 409.138 287.527 408.064 286.213C407.434 285.439 406.298 285.183 405.744 284.353C405.482 283.899 405.311 283.399 405.238 282.88C404.641 280.259 403.349 277.847 401.497 275.895C401.375 278.229 401.882 280.553 402.966 282.624C403.475 283.41 403.852 284.275 404.081 285.183C404.31 286.677 403.472 288.219 403.846 289.692C404.261 291.372 406.159 292.499 406.249 294.235C406.325 295.701 405.044 297.001 405.141 298.447C405.219 299.068 405.442 299.663 405.792 300.183C406.928 302.064 408.563 303.364 411.119 303.322L414.208 303.426L412.103 296.282Z" fill="#51BEE5"/>
<g opacity="0.3">
<path opacity="0.3" d="M412.103 296.282C412.366 295.266 411.701 294.249 410.953 293.516C410.205 292.783 409.311 292.133 408.923 291.144C408.293 289.567 409.138 287.527 408.064 286.213C407.434 285.439 406.298 285.183 405.744 284.353C405.482 283.899 405.311 283.399 405.238 282.88C404.641 280.259 403.349 277.847 401.497 275.895C401.375 278.229 401.882 280.553 402.966 282.624C403.475 283.41 403.852 284.275 404.081 285.183C404.31 286.677 403.472 288.219 403.846 289.692C404.261 291.372 406.159 292.499 406.249 294.235C406.325 295.701 405.044 297.001 405.141 298.447C405.219 299.068 405.442 299.663 405.792 300.183C406.928 302.064 408.563 303.364 411.119 303.322L414.208 303.426L412.103 296.282Z" fill="black"/>
</g>
<path d="M414.839 303.509C415.121 303.559 415.409 303.559 415.691 303.509C416.034 303.462 416.37 303.379 416.695 303.26C417.145 303.102 417.565 302.868 417.935 302.568C418.159 302.382 418.335 302.145 418.448 301.877C418.539 301.576 418.588 301.264 418.593 300.95C418.596 300.617 418.619 300.285 418.662 299.954C418.724 299.601 418.853 299.263 419.043 298.959C419.545 298.322 419.938 297.607 420.207 296.842C420.358 295.944 420.33 295.025 420.124 294.138C419.898 293.183 419.922 292.185 420.193 291.241C420.526 290.273 421.205 289.401 421.544 288.309C421.884 287.216 421.724 286.026 421.8 284.851C421.819 284.258 421.956 283.675 422.202 283.136C422.452 282.589 422.798 282.071 423.068 281.497C423.534 280.289 423.803 279.014 423.865 277.721C423.941 277.071 424.01 276.414 424.086 275.75C424.132 275.08 424.248 274.418 424.433 273.772C424.639 273.121 424.887 272.483 425.174 271.864C425.318 271.542 425.437 271.209 425.527 270.868C425.582 270.515 425.617 270.159 425.631 269.803C425.666 269.089 425.638 268.374 425.548 267.666C425.465 266.974 425.333 266.248 425.257 265.536V265.411V265.266L425.125 265.328C424.474 265.658 423.906 266.131 423.463 266.711C423.036 267.288 422.691 267.921 422.438 268.592C421.999 269.91 421.677 271.264 421.475 272.638C421.283 273.949 420.854 275.215 420.207 276.372C419.868 276.926 419.459 277.424 419.099 277.963C418.715 278.484 418.452 279.084 418.33 279.72C418.15 281.027 418.87 282.175 418.718 283.329C418.644 283.897 418.453 284.443 418.157 284.934C417.873 285.425 417.54 285.888 417.229 286.317C416.911 286.767 416.633 287.244 416.397 287.742C416.181 288.232 416.052 288.756 416.016 289.291C415.947 290.335 416.093 291.317 416.016 292.25C415.929 293.138 415.67 293.999 415.254 294.788C414.88 295.549 414.465 296.234 414.111 296.905C413.938 297.237 413.779 297.562 413.647 297.887C413.521 298.201 413.428 298.528 413.37 298.862C413.288 299.447 413.288 300.04 413.37 300.625C413.455 301.441 413.761 302.218 414.257 302.873C414.331 302.97 414.415 303.061 414.506 303.142C414.566 303.208 414.633 303.266 414.707 303.315L414.887 303.44C414.652 303.284 414.433 303.103 414.236 302.9C413.763 302.243 413.473 301.472 413.398 300.667C413.33 300.089 413.344 299.505 413.439 298.931C413.494 298.604 413.585 298.284 413.71 297.977C413.841 297.658 414.007 297.333 414.181 297.001C414.534 296.344 414.957 295.66 415.338 294.892C415.768 294.092 416.036 293.216 416.127 292.313C416.21 291.358 416.065 290.369 416.127 289.353C416.16 288.835 416.285 288.327 416.494 287.852C416.728 287.368 417.004 286.905 417.319 286.469C417.63 286.006 417.963 285.549 418.254 285.044C418.57 284.539 418.771 283.97 418.843 283.378C418.995 282.147 418.275 280.992 418.462 279.775C418.58 279.166 418.833 278.592 419.203 278.094C419.556 277.569 419.972 277.064 420.318 276.497C420.98 275.321 421.422 274.034 421.62 272.7C421.819 271.34 422.139 270 422.576 268.696C422.817 268.04 423.153 267.422 423.574 266.864C423.991 266.286 424.536 265.812 425.167 265.48L425.028 265.404V265.529C425.105 266.22 425.229 266.96 425.312 267.659C425.402 268.358 425.43 269.064 425.396 269.768C425.381 270.113 425.349 270.457 425.299 270.799C425.215 271.13 425.099 271.452 424.952 271.76C424.669 272.388 424.421 273.033 424.211 273.689C424.026 274.346 423.907 275.021 423.858 275.702C423.789 276.393 423.712 277.022 423.643 277.673C423.583 278.946 423.321 280.202 422.867 281.393C422.604 281.953 422.258 282.465 422.001 283.032C421.751 283.593 421.61 284.196 421.586 284.809C421.523 285.999 421.676 287.168 421.35 288.226C421.025 289.284 420.36 290.148 420.02 291.144C419.742 292.113 419.718 293.137 419.951 294.118C420.158 294.988 420.191 295.89 420.048 296.773C419.784 297.522 419.401 298.222 418.912 298.848C418.717 299.162 418.588 299.513 418.531 299.878C418.488 300.213 418.465 300.55 418.462 300.888C418.463 301.193 418.418 301.496 418.33 301.787C418.228 302.04 418.063 302.264 417.852 302.437C417.489 302.733 417.079 302.966 416.64 303.129C416.319 303.25 415.987 303.34 415.649 303.398C415.441 303.435 415.23 303.454 415.019 303.454L414.839 303.509Z" fill="#263238"/>
<path d="M424.627 267.133C424.627 267.133 424.627 267.133 424.592 267.223L424.53 267.5C424.467 267.742 424.391 268.115 424.273 268.572C424.156 269.028 423.872 269.547 423.636 270.183C423.354 270.901 423.109 271.632 422.902 272.375C422.666 273.198 422.452 274.111 422.209 275.093C422.019 276.139 421.686 277.153 421.219 278.108C420.962 278.606 420.678 279.118 420.45 279.671C420.231 280.241 420.082 280.836 420.006 281.442C419.842 282.7 419.611 283.949 419.314 285.183L417.561 292.313C417.014 294.505 416.515 296.462 416.1 298.136C415.684 299.809 415.358 301.116 415.13 302.064C415.019 302.513 414.936 302.873 414.873 303.136L414.811 303.412C414.811 303.474 414.811 303.509 414.811 303.509C414.813 303.479 414.813 303.449 414.811 303.419L414.887 303.143C414.961 302.884 415.058 302.532 415.178 302.084C415.428 301.144 415.781 299.809 416.21 298.17C416.64 296.531 417.152 294.546 417.72 292.361C418.288 290.176 418.856 287.755 419.487 285.224C419.783 283.986 420.015 282.732 420.18 281.469C420.25 280.877 420.394 280.296 420.609 279.74C420.824 279.201 421.108 278.696 421.364 278.191C421.833 277.221 422.164 276.19 422.348 275.128C422.562 274.146 422.763 273.233 422.985 272.41C423.178 271.67 423.409 270.941 423.678 270.225C423.906 269.588 424.176 269.063 424.287 268.592C424.398 268.122 424.454 267.756 424.502 267.507C424.502 267.396 424.537 267.306 424.551 267.23C424.579 267.201 424.605 267.168 424.627 267.133V267.133Z" fill="#263238"/>
<path d="M415.386 303.516C417.402 302.32 417.984 298.675 417.139 296.49C416.293 294.304 414.825 292.299 414.596 289.961C414.423 288.17 415.012 286.324 414.596 284.574C414.035 282.202 411.715 280.37 411.742 277.935C411.742 276.552 412.539 275.287 412.477 273.917C412.4 272.244 411.091 270.916 410.315 269.443C409.096 267.189 409.013 264.519 408.597 261.988C408.182 259.457 407.212 256.746 404.968 255.508C404.635 257.652 404.074 259.125 404.275 262.037C404.337 263.081 405.557 265.079 405.723 267.368C405.82 268.752 405.889 270.135 405.972 271.483C405.985 272.82 406.205 274.148 406.623 275.418C406.984 276.372 407.579 277.244 407.849 278.233C408.362 280.086 407.69 282.099 408.099 283.98C408.452 285.57 409.553 286.946 409.782 288.558C410.101 290.833 408.625 293.191 409.38 295.356C409.754 296.427 410.641 297.292 410.89 298.398C411.084 299.263 410.89 300.176 411.05 301.04C411.334 302.423 414.001 303.516 415.421 303.426" fill="#51BEE5"/>
<path d="M405.522 257.638C405.522 257.638 405.522 257.68 405.522 257.756L405.563 258.109C405.612 258.42 405.667 258.876 405.771 259.492C405.875 260.107 406.187 260.75 406.464 261.566C406.76 262.475 407.008 263.398 407.205 264.332C407.441 265.37 407.635 266.511 407.836 267.749C407.998 269.077 408.345 270.376 408.868 271.608C409.152 272.251 409.47 272.894 409.713 273.585C409.944 274.291 410.086 275.023 410.135 275.764C410.246 277.339 410.445 278.907 410.731 280.46C411.348 283.648 411.936 286.683 412.477 289.45C413.017 292.216 413.543 294.602 413.952 296.676C414.361 298.751 414.735 300.425 414.977 301.6L415.268 302.935L415.351 303.281C415.351 303.364 415.351 303.398 415.351 303.398C415.355 303.359 415.355 303.32 415.351 303.281L415.289 302.928C415.227 302.61 415.144 302.16 415.033 301.586C414.804 300.404 414.472 298.723 414.063 296.649C413.654 294.574 413.156 292.085 412.601 289.332C412.047 286.58 411.486 283.544 410.877 280.342C410.597 278.793 410.398 277.23 410.281 275.66C410.23 274.904 410.081 274.158 409.837 273.44C409.595 272.749 409.269 272.092 408.992 271.449C408.47 270.232 408.118 268.95 407.946 267.638C407.739 266.407 407.538 265.259 407.295 264.222C407.086 263.287 406.829 262.364 406.526 261.456C406.27 260.647 405.951 259.99 405.834 259.381C405.716 258.772 405.654 258.344 405.591 258.039C405.563 257.892 405.543 257.774 405.529 257.687C405.529 257.68 405.522 257.638 405.522 257.638Z" fill="#263238"/>
<path d="M356.395 212.252H48.787V242.943H356.395V212.252Z" fill="#212121"/>
<g opacity="0.4">
<path opacity="0.4" d="M356.395 212.252H48.787V242.943H356.395V212.252Z" fill="black"/>
</g>
<path d="M289.751 246.822H198.951V275.245H289.751V246.822Z" fill="#455A64"/>
<path d="M135.5 233.959V271.538H166.498L178.925 253.551H405.314V233.959H135.5Z" fill="#263238"/>
<path d="M133.56 114.985C133.529 114.381 133.261 113.814 132.813 113.407C132.366 113 131.775 112.787 131.17 112.813C118.916 113.311 60.7431 115.974 48.7801 121.72C39.6226 126.112 29.5922 142.529 22.5197 153.587C17.4492 161.512 6.23431 179.112 3.98303 188.103C2.0781 195.71 0.907429 211.532 1.03904 219.388L4.23933 260.916H56.9609L62.2393 247.203C63.9236 242.834 66.8943 239.078 70.7599 236.428C74.6254 233.779 79.2044 232.361 83.8932 232.362H136.289V163.428L133.56 114.985Z" fill="#212121"/>
<path d="M42.5319 126.312C35.2724 133.228 27.9852 144.984 22.5198 153.587C17.8232 160.924 7.87602 176.554 4.62725 185.966C4.5649 186.145 4.51641 186.311 4.461 186.477C6.06807 186.035 8.53409 185.129 9.30992 183.614C10.4667 181.305 11.9491 173.421 30.2711 143.629C35.8404 134.556 41.2781 129.244 42.5319 126.312Z" fill="#455A64"/>
<path d="M106.482 123.242C93.0022 124.009 63.7771 125.973 54.4395 129.168C42.2756 133.318 28.6225 165.468 27.9782 166.879L18.7722 190.392C18.7152 190.548 18.6969 190.715 18.7189 190.88C18.7409 191.045 18.8025 191.202 18.8984 191.338C18.9944 191.474 19.1219 191.585 19.27 191.661C19.4181 191.737 19.5824 191.776 19.7489 191.775H43.5294C44.4283 191.773 45.3196 191.611 46.1617 191.298L108.713 168.034C110.096 167.521 111.288 166.598 112.13 165.389C112.972 164.18 113.423 162.743 113.423 161.27V129.784C113.424 128.891 113.242 128.008 112.888 127.189C112.534 126.369 112.017 125.63 111.367 125.018C110.717 124.405 109.948 123.932 109.108 123.626C108.268 123.321 107.375 123.19 106.482 123.242V123.242Z" fill="#263238"/>
<path d="M21.4253 189.43C21.4253 189.43 30.2434 169.686 33.2012 163.234C37.683 153.47 48.1359 133.497 55.1876 131.354C61.6782 129.41 80.3465 127.038 106.614 125.545H106.863C107.991 125.548 109.071 125.998 109.867 126.795C110.663 127.592 111.109 128.672 111.109 129.798V161.962C111.107 162.753 110.864 163.524 110.412 164.173C109.961 164.823 109.322 165.32 108.581 165.599L62.3432 171.284C60.4914 171.511 58.7114 172.138 57.1274 173.122C55.5434 174.107 54.1935 175.424 53.1718 176.982L45.185 189.168C44.7149 189.341 44.2177 189.43 43.7164 189.43H21.4253Z" fill="#455A64"/>
<path d="M60.6946 171.644L44.9564 189.105L53.6567 131.112L55.8249 130.365L51.5509 173.324C51.5287 173.54 51.563 173.759 51.6504 173.958C51.7379 174.157 51.8755 174.33 52.0499 174.46C52.2243 174.591 52.4295 174.673 52.6455 174.701C52.8616 174.728 53.0811 174.7 53.2826 174.617L60.6946 171.644Z" fill="#263238"/>
<path d="M-4.26211e-05 223.42C-0.0554588 222.659 0.200841 222.037 0.581828 222.037L9.00509 221.235C9.69779 221.173 10.342 222.473 10.4251 224.001L10.8061 230.46C10.8685 231.491 10.5567 232.369 10.1134 232.445L1.51698 233.953C1.12906 234.022 0.755003 233.448 0.699587 232.687L-4.26211e-05 223.42Z" fill="#EBEBEB"/>
<path d="M60.6946 253.558H0V277.852H60.6946V253.558Z" fill="#263238"/>
<path d="M101.215 303.224C119.542 302.521 133.828 287.119 133.124 268.823C132.42 250.526 116.993 236.264 98.6658 236.967C80.339 237.67 66.0529 253.072 66.7569 271.368C67.461 289.664 82.8885 303.927 101.215 303.224Z" fill="#263238"/>
<path d="M66.7557 269.533C66.7557 269.533 66.7557 269.588 66.7557 269.616C66.6929 273.969 67.4896 278.291 69.1001 282.337C70.7106 286.382 73.1035 290.071 76.1421 293.194C79.1808 296.316 82.8056 298.81 86.8098 300.534C90.8139 302.257 95.1189 303.177 99.479 303.239C103.839 303.302 108.169 302.507 112.221 300.899C116.273 299.291 119.968 296.902 123.096 293.868C126.223 290.835 128.721 287.216 130.448 283.218C132.174 279.221 133.095 274.923 133.158 270.57V270.487L66.7557 269.533Z" fill="#263238"/>
<path d="M76.6406 269.761C76.5753 274.363 77.8782 278.88 80.3844 282.743C82.8906 286.605 86.4877 289.639 90.7209 291.461C94.954 293.282 99.6332 293.81 104.167 292.977C108.7 292.144 112.885 289.988 116.191 286.781C119.497 283.574 121.776 279.461 122.741 274.96C123.706 270.46 123.312 265.776 121.61 261.499C119.908 257.222 116.974 253.545 113.179 250.932C109.384 248.32 104.899 246.89 100.289 246.822C97.2278 246.778 94.1872 247.335 91.3415 248.464C88.4958 249.593 85.9008 251.27 83.7046 253.4C81.5085 255.531 79.7543 258.072 78.5422 260.879C77.3301 263.686 76.6839 266.705 76.6406 269.761V269.761Z" fill="#FAFAFA"/>
<path d="M100.289 246.822C97.2278 246.778 94.1872 247.335 91.3415 248.464C88.4958 249.593 85.9008 251.27 83.7046 253.4C81.5085 255.531 79.7543 258.072 78.5422 260.879C77.3301 263.686 76.6839 266.705 76.6406 269.761L123.259 270.453C123.307 267.395 122.751 264.358 121.622 261.515C120.493 258.672 118.814 256.079 116.68 253.884C114.547 251.69 112.002 249.936 109.189 248.725C106.377 247.513 103.352 246.867 100.289 246.822Z" fill="#E0E0E0"/>
<path d="M85.7496 269.893C85.7102 272.696 86.5042 275.448 88.0312 277.801C89.5582 280.153 91.7496 282.001 94.3285 283.111C96.9073 284.22 99.7578 284.542 102.52 284.034C105.281 283.527 107.83 282.213 109.844 280.259C111.858 278.306 113.247 275.8 113.835 273.058C114.422 270.317 114.183 267.463 113.146 264.858C112.109 262.252 110.322 260.012 108.01 258.421C105.698 256.829 102.966 255.958 100.158 255.916C98.2924 255.889 96.4398 256.229 94.706 256.916C92.9721 257.604 91.391 258.626 90.0529 259.924C88.7149 261.222 87.6461 262.77 86.9077 264.481C86.1693 266.191 85.7758 268.03 85.7496 269.893V269.893Z" fill="#263238"/>
<path d="M35.5425 144.293H32.8341C29.7812 144.293 27.3063 146.763 27.3063 149.811V171.754C27.3063 174.802 29.7812 177.273 32.8341 177.273H35.5425C38.5954 177.273 41.0703 174.802 41.0703 171.754V149.811C41.0703 146.763 38.5954 144.293 35.5425 144.293Z" fill="#263238"/>
<path d="M21.6123 197.66H20.9196V162.792C20.9214 161.129 21.5839 159.534 22.7618 158.358C23.9397 157.183 25.5367 156.521 27.2024 156.519H28.858V157.211H27.2024C25.7204 157.213 24.2996 157.801 23.2516 158.847C22.2037 159.894 21.6141 161.312 21.6123 162.792V197.66Z" fill="#263238"/>
<path d="M26.3227 197.708L24.397 165.101C24.3639 164.543 24.4456 163.983 24.6371 163.457C24.8286 162.93 25.1259 162.449 25.5105 162.042C25.8952 161.634 26.3593 161.31 26.8741 161.088C27.389 160.866 27.9439 160.752 28.5047 160.752V161.443C28.0385 161.443 27.5772 161.539 27.1492 161.723C26.7212 161.908 26.3354 162.177 26.0157 162.516C25.6959 162.855 25.4488 163.255 25.2895 163.693C25.1303 164.13 25.0623 164.595 25.0897 165.06L27.0154 197.667L26.3227 197.708Z" fill="#263238"/>
<path d="M28.5116 194.52H19.174V205.315H28.5116V194.52Z" fill="#263238"/>
<path d="M25.0619 174.036H21.2659V174.728H25.0619V174.036Z" fill="#263238"/>
<path d="M56.7462 124.168L57.5705 124.065L60.0019 123.774L69.4157 122.689L104.522 118.698C106.392 118.498 108.297 118.249 110.271 118.076C111.28 118.001 112.295 118.069 113.285 118.276C114.293 118.505 115.266 118.873 116.173 119.369C118.05 120.408 119.57 121.986 120.537 123.899C121.045 124.875 121.387 125.929 121.549 127.018C121.632 127.567 121.68 128.122 121.694 128.677V130.344C121.694 139.272 121.694 148.864 121.694 159.023C121.694 179.341 121.694 201.934 121.694 226.103V226.276H85.244C83.1614 226.206 81.0766 226.303 79.0097 226.567C74.7482 227.184 70.7282 228.923 67.3632 231.606C63.9982 234.288 61.4095 237.817 59.8634 241.829C59.5641 242.566 59.3119 243.322 59.1083 244.091C58.8791 244.853 58.7009 245.629 58.5749 246.414L58.4156 247.576L58.3256 248.164V248.759L58.2632 249.941V250.529V250.605L58.0831 250.792H11.7759V250.626C11.7759 240.197 11.7759 230.172 11.7759 220.55C11.7759 215.751 11.7759 211.064 11.7759 206.491C11.7759 204.209 11.7759 201.957 11.7759 199.734C11.7759 198.621 11.7759 197.521 11.7759 196.415C11.7983 195.324 11.8769 194.234 12.0115 193.151C12.526 188.946 13.8578 184.882 15.9322 181.187L21.4738 170.814L31.2755 152.446L39.2416 137.529L40.9249 134.383C41.2019 133.885 41.4444 133.38 41.7353 132.91C42.0222 132.452 42.3344 132.011 42.6705 131.589C43.8698 130.091 45.2844 128.779 46.8683 127.695C49.0458 126.214 51.4824 125.154 54.0516 124.57C54.9331 124.358 55.8291 124.212 56.7323 124.134L56.0396 124.238C55.5894 124.307 54.9175 124.424 54.0516 124.625C51.4981 125.229 49.079 126.301 46.9167 127.785C45.3497 128.872 43.9496 130.182 42.7605 131.672C42.4329 132.093 42.1277 132.532 41.8462 132.986C41.5552 133.449 41.3197 133.961 41.0426 134.459L39.4009 137.619L31.4695 152.557L21.7093 170.966L16.1677 181.339C14.1263 184.995 12.8114 189.011 12.2955 193.165C12.1632 194.239 12.0869 195.319 12.0669 196.401C12.0669 197.494 12.0669 198.6 12.0669 199.714C12.0669 201.931 12.0669 204.183 12.0669 206.47C12.0669 211.044 12.0669 215.73 12.0669 220.53C12.0669 230.133 12.0669 240.158 12.0669 250.605L11.8937 250.432H58.0208C58.0693 250.398 57.6813 250.757 57.8476 250.598V250.522V249.921L57.9099 248.724V248.122L58 247.528L58.1801 246.338C58.3091 245.541 58.4896 244.754 58.7204 243.98C58.9566 243.196 59.2411 242.427 59.5724 241.677C61.1391 237.61 63.761 234.032 67.1693 231.31C70.5776 228.588 74.6497 226.82 78.9681 226.186C81.0353 225.926 83.1199 225.829 85.2024 225.896H121.514L121.341 226.076C121.341 201.934 121.341 179.341 121.341 158.995C121.341 148.836 121.341 139.244 121.341 130.316C121.386 129.219 121.339 128.121 121.202 127.031C121.045 125.971 120.715 124.943 120.225 123.989C119.285 122.117 117.8 120.572 115.965 119.556C115.079 119.072 114.13 118.711 113.146 118.484C112.179 118.28 111.188 118.212 110.202 118.283C108.249 118.456 106.33 118.698 104.46 118.899L69.3465 122.785L59.9257 123.809L57.4874 124.065L56.7462 124.168Z" fill="#263238"/>
<path d="M110.673 200.599C110.673 200.599 110.867 200.599 111.213 200.516C111.87 200.408 112.485 200.123 112.992 199.691C113.499 199.26 113.878 198.698 114.088 198.068C114.245 197.589 114.308 197.084 114.275 196.581C114.261 196.018 114.116 195.467 113.853 194.97C113.549 194.403 113.1 193.928 112.55 193.593C112.001 193.259 111.372 193.077 110.728 193.068H106.164H95.683C94.813 193.074 93.9751 193.397 93.3271 193.976C92.679 194.556 92.2654 195.352 92.164 196.214C92.0552 197.036 92.2079 197.87 92.6004 198.6C92.9894 199.293 93.5989 199.835 94.3322 200.142C95.0574 200.391 95.8266 200.485 96.5904 200.419H98.8071H102.79L108.56 200.474H110.126C110.309 200.471 110.492 200.483 110.673 200.509C110.492 200.535 110.309 200.547 110.126 200.544L108.56 200.578L102.79 200.633H98.8071H96.5904C96.2025 200.633 95.8284 200.633 95.4197 200.633C95.003 200.61 94.5931 200.516 94.2075 200.357C93.4043 200.025 92.7342 199.437 92.3026 198.683C91.8775 197.889 91.7104 196.983 91.8246 196.09C91.9316 195.142 92.3836 194.266 93.0949 193.628C93.8062 192.991 94.7272 192.636 95.683 192.632H106.164H110.735C111.735 192.648 112.689 193.055 113.392 193.765C114.095 194.474 114.491 195.431 114.497 196.429C114.521 196.957 114.446 197.485 114.275 197.985C113.992 198.789 113.442 199.472 112.717 199.921C112.265 200.203 111.756 200.383 111.227 200.447C111.05 200.522 110.864 200.574 110.673 200.599Z" fill="#263238"/>
<path d="M109.392 191.913C107.418 192.091 105.436 192.151 103.455 192.093C101.472 192.151 99.4875 192.091 97.5117 191.913C99.4878 191.74 101.472 191.682 103.455 191.74C105.436 191.682 107.418 191.74 109.392 191.913V191.913Z" fill="white"/>
<path d="M63.4585 278.053L57.9168 277.652C59.3646 257.839 61.4843 245.986 64.3936 241.421C69.9976 232.639 75.56 231.048 81.7112 229.997C87.4537 229.022 93.2377 229.257 98.8348 229.478L100.22 229.534C111.774 229.983 135.977 229.582 136.241 229.582L136.331 235.114C136.088 235.114 111.733 235.522 100.019 235.066L98.6339 235.011C93.3209 234.796 87.8277 234.575 82.6671 235.453C77.1601 236.394 73.4957 237.466 69.0763 244.388C67.7463 246.484 65.2387 253.648 63.4585 278.053Z" fill="#263238"/>
<path d="M412.103 52.3644H139.192V233.773H412.103V52.3644Z" fill="#212121"/>
<path d="M408.833 230.177C408.833 229.015 408.778 162.474 408.688 56.4584L408.833 56.6037L142.143 56.6382L142.323 56.4584C142.323 118.207 142.323 176.989 142.323 230.177L142.156 230.011L408.847 230.177L142.156 230.343H141.99V230.177C141.99 176.989 141.99 118.207 141.99 56.4584V56.2786H142.191L408.882 56.3132H409.027V56.4584C408.888 162.474 408.833 229.015 408.833 230.177Z" fill="#263238"/>
<path d="M340.567 117.578L381.423 108.021L379.809 103.685L340.567 117.578Z" fill="#FAFAFA"/>
<path d="M180.525 128.733L208.926 122.087L207.804 119.072L180.525 128.733Z" fill="#FAFAFA"/>
<path d="M261.135 217.791L301.984 208.241L300.377 203.898L261.135 217.791Z" fill="#FAFAFA"/>
<path d="M250.267 153.601C250.267 153.601 254.492 156.187 254.492 151.333C254.492 139.659 254.457 115.669 254.45 106.174C254.463 105.366 254.635 104.567 254.957 103.825C255.279 103.084 255.745 102.412 256.327 101.85C256.91 101.288 257.597 100.846 258.351 100.55C259.105 100.253 259.91 100.108 260.719 100.123C265.825 100.123 272.856 100.123 277.109 100.172C282.557 100.132 287.898 101.685 292.473 104.639C296.098 107.025 298.748 110.629 299.94 114.798C302.24 122.405 300.003 128.912 294.302 134.438C291.35 137.207 287.793 139.251 283.911 140.406C283.529 140.562 283.102 140.574 282.712 140.441C282.321 140.307 281.991 140.037 281.784 139.68C281.507 139.193 281.336 138.653 281.283 138.094C281.23 137.536 281.298 136.974 281.48 136.443C282.23 133.254 283.446 130.192 285.089 127.356C285.411 126.835 285.767 126.336 286.155 125.863C288.234 123.283 290.312 120.669 291.004 117.433C291.441 115.87 291.308 114.204 290.63 112.73C289.48 110.379 286.682 108.996 283.634 109.272C282.723 109.362 281.824 109.55 280.953 109.833C279.856 110.131 278.918 110.843 278.335 111.817C276.589 115.005 273.77 117.274 271.124 119.68C267.747 122.696 264.572 125.93 261.62 129.362C260.428 130.745 259.195 132.128 257.976 133.56C257.874 133.671 257.779 133.789 257.692 133.912C257.478 134.217 257.2 134.542 257.436 134.908C257.672 135.275 258.129 135.143 258.482 135.081C259.1 134.977 259.729 134.958 260.352 135.026C263.175 135.385 266.04 135.235 268.81 134.583C272.253 133.711 275.367 131.859 277.774 129.251C278.84 128.145 279.686 126.886 280.642 125.704C280.905 125.379 281.161 124.736 281.674 125.012C282.186 125.289 281.854 125.918 281.597 126.326C280.51 128.02 279.332 129.646 278.321 131.388C276.924 133.857 275.764 136.453 274.857 139.141C274.061 141.287 273.513 143.516 273.223 145.786C272.925 148.269 272.675 150.772 273.389 153.234C276.222 160.807 292.875 159.569 292.875 159.569C289.257 161.794 285.294 163.402 281.147 164.327C275.709 165.433 269.441 164.5 265.755 163.635C257.685 161.706 250.267 153.601 250.267 153.601Z" fill="#FF0001"/>
<path d="M275.564 92.0596C282.656 92.0582 289.588 94.1564 295.485 98.0888C301.383 102.021 305.979 107.611 308.694 114.152C311.409 120.692 312.12 127.889 310.737 134.833C309.354 141.777 305.94 148.156 300.926 153.163C295.912 158.169 289.524 161.579 282.568 162.961C275.613 164.343 268.404 163.634 261.852 160.925C255.3 158.216 249.7 153.628 245.76 147.742C241.82 141.855 239.717 134.934 239.717 127.854C239.717 118.362 243.493 109.259 250.216 102.546C256.938 95.8335 266.056 92.0614 275.564 92.0596ZM275.564 89.0029C267.867 89.0043 260.344 91.2841 253.945 95.5539C247.547 99.8238 242.56 105.892 239.615 112.991C236.671 120.091 235.901 127.902 237.404 135.438C238.906 142.974 242.613 149.896 248.056 155.329C253.498 160.762 260.433 164.461 267.981 165.96C275.53 167.458 283.354 166.689 290.465 163.748C297.576 160.807 303.653 155.827 307.929 149.438C312.205 143.049 314.487 135.538 314.487 127.854C314.476 117.553 310.371 107.676 303.074 100.392C295.777 93.1081 285.883 89.0121 275.564 89.0029V89.0029Z" fill="#FF0001"/>
<path d="M246.484 172.944C247.375 173.318 248.137 173.946 248.673 174.749C249.177 175.584 249.444 176.54 249.444 177.515C249.444 178.49 249.177 179.446 248.673 180.281C248.137 181.086 247.376 181.716 246.484 182.093C245.43 182.534 244.295 182.749 243.152 182.722H241.164V186.104H236.516V172.342H243.139C244.284 172.305 245.424 172.51 246.484 172.944V172.944ZM244.282 178.691C244.583 178.368 244.751 177.943 244.751 177.501C244.751 177.059 244.583 176.634 244.282 176.312C243.885 176.01 243.394 175.86 242.896 175.89H241.199V179.112H242.896C243.394 179.142 243.885 178.992 244.282 178.691V178.691Z" fill="white"/>
<path d="M262.223 181.733H254.734C254.885 182.124 255.163 182.453 255.524 182.667C255.949 182.895 256.427 183.005 256.91 182.985C257.314 182.997 257.717 182.939 258.101 182.812C258.479 182.66 258.834 182.455 259.154 182.204L261.481 184.541C260.428 185.694 258.858 186.27 256.771 186.27C255.59 186.302 254.418 186.066 253.342 185.578C252.408 185.141 251.618 184.448 251.063 183.58C250.535 182.713 250.255 181.718 250.255 180.703C250.255 179.688 250.535 178.693 251.063 177.826C251.597 176.98 252.354 176.298 253.252 175.855C254.202 175.398 255.242 175.156 256.296 175.145C257.351 175.134 258.395 175.355 259.355 175.793C260.24 176.209 260.986 176.872 261.502 177.702C262.053 178.607 262.33 179.651 262.299 180.71C262.278 180.751 262.257 181.104 262.223 181.733ZM255.247 178.525C254.932 178.8 254.723 179.177 254.658 179.59H258.122C258.053 179.182 257.845 178.81 257.533 178.538C257.212 178.275 256.805 178.137 256.39 178.151C255.977 178.136 255.572 178.269 255.247 178.525V178.525Z" fill="white"/>
<path d="M263.677 171.505H268.131V186.097H263.677V171.505Z" fill="white"/>
<path d="M270.383 173.815C269.96 173.443 269.7 172.921 269.657 172.361C269.615 171.8 269.793 171.245 270.154 170.814C270.218 170.739 270.287 170.67 270.362 170.606C270.907 170.162 271.598 169.935 272.301 169.97C273.004 169.933 273.698 170.149 274.255 170.579C274.488 170.767 274.675 171.007 274.801 171.279C274.927 171.551 274.989 171.849 274.982 172.148C274.99 172.464 274.929 172.778 274.804 173.069C274.678 173.359 274.491 173.618 274.255 173.829C273.718 174.303 273.018 174.551 272.301 174.52C271.596 174.531 270.912 174.28 270.383 173.815V173.815ZM270.099 175.323H274.546V186.076H270.099V175.323Z" fill="white"/>
<path d="M281.681 182.771L280.988 183.538V186.076H276.541V171.505H280.988V178.421L284.084 175.295H289.342L284.888 179.949L289.695 186.049H284.32L281.681 182.771Z" fill="white"/>
<path d="M299.525 176.395C300.515 177.238 301.021 178.538 301.021 180.295V186.076H296.865V184.645C296.352 185.724 295.334 186.256 293.81 186.256C293.06 186.278 292.316 186.127 291.635 185.813C291.08 185.562 290.611 185.154 290.287 184.639C289.963 184.123 289.798 183.524 289.813 182.916C289.791 182.442 289.892 181.97 290.105 181.546C290.319 181.123 290.638 180.761 291.032 180.495C292.16 179.871 293.444 179.585 294.731 179.673H296.525C296.38 178.836 295.708 178.414 294.496 178.414C293.995 178.413 293.497 178.49 293.02 178.642C292.561 178.773 292.128 178.981 291.739 179.258L290.353 176.325C291.047 175.916 291.799 175.615 292.584 175.433C293.438 175.219 294.315 175.109 295.195 175.108C296.746 175.008 298.281 175.464 299.525 176.395V176.395ZM296.013 183.345C296.274 183.153 296.468 182.885 296.567 182.577V181.83H295.465C294.558 181.83 294.08 182.128 294.08 182.736C294.077 182.854 294.101 182.97 294.15 183.077C294.199 183.184 294.273 183.278 294.364 183.352C294.583 183.527 294.859 183.616 295.14 183.601C295.441 183.601 295.735 183.512 295.985 183.345H296.013Z" fill="white"/>
<path d="M313.628 176.346C314.065 176.836 314.398 177.409 314.606 178.03C314.814 178.652 314.894 179.31 314.84 179.963V186.097H310.393V180.731C310.393 179.5 309.95 178.884 309.07 178.877C308.843 178.871 308.617 178.915 308.409 179.006C308.2 179.096 308.015 179.232 307.865 179.403C307.515 179.874 307.35 180.457 307.401 181.042V186.097H302.947V175.323H307.186V176.381C307.597 175.966 308.094 175.646 308.641 175.44C309.214 175.224 309.822 175.116 310.435 175.122C311.022 175.098 311.609 175.195 312.158 175.405C312.707 175.616 313.207 175.936 313.628 176.346V176.346Z" fill="white"/>
<path d="M235.671 195.232C235.28 195.036 234.951 194.734 234.722 194.361C234.501 193.976 234.385 193.54 234.385 193.096C234.385 192.652 234.501 192.215 234.722 191.83C234.953 191.458 235.281 191.157 235.671 190.959C236.101 190.743 236.576 190.636 237.057 190.647C237.515 190.636 237.968 190.743 238.373 190.959C238.738 191.159 239.025 191.476 239.19 191.858L238.117 192.432C238.02 192.233 237.868 192.066 237.679 191.95C237.49 191.835 237.271 191.777 237.05 191.782C236.883 191.775 236.717 191.803 236.562 191.864C236.407 191.925 236.267 192.017 236.149 192.134C236.028 192.262 235.934 192.413 235.873 192.579C235.812 192.744 235.786 192.92 235.796 193.096C235.786 193.272 235.813 193.449 235.874 193.616C235.934 193.782 236.028 193.934 236.149 194.064C236.268 194.18 236.409 194.271 236.563 194.332C236.718 194.393 236.884 194.421 237.05 194.416C237.272 194.421 237.491 194.361 237.68 194.245C237.869 194.128 238.021 193.96 238.117 193.759L239.19 194.347C239.021 194.723 238.734 195.033 238.373 195.232C237.968 195.448 237.515 195.557 237.057 195.551C236.576 195.559 236.1 195.45 235.671 195.232V195.232Z" fill="white"/>
<path d="M244.524 190.717V195.474H243.139V191.844H241.629L241.58 192.688C241.568 193.21 241.51 193.731 241.407 194.244C241.337 194.602 241.177 194.938 240.943 195.219C240.829 195.338 240.691 195.432 240.538 195.492C240.385 195.553 240.221 195.58 240.056 195.571C239.822 195.562 239.59 195.528 239.363 195.468L239.44 194.333H239.64C239.731 194.341 239.821 194.324 239.902 194.285C239.984 194.246 240.054 194.187 240.105 194.112C240.217 193.939 240.288 193.743 240.312 193.538C240.354 193.227 240.382 192.923 240.396 192.611L240.465 190.703L244.524 190.717Z" fill="white"/>
<path d="M250.627 190.717L248.472 195.772C248.323 196.229 248.041 196.631 247.662 196.927C247.318 197.156 246.912 197.274 246.498 197.266C246.249 197.265 246.001 197.225 245.764 197.148C245.545 197.086 245.342 196.977 245.168 196.83L245.674 195.848C245.782 195.943 245.906 196.018 246.041 196.069C246.174 196.118 246.315 196.144 246.457 196.145C246.622 196.154 246.785 196.108 246.921 196.014C247.06 195.888 247.169 195.732 247.239 195.558V195.509L245.161 190.717H246.602L247.939 193.946L249.283 190.717H250.627Z" fill="white"/>
<path d="M255.753 193.67H255.06V195.475H253.675V193.67H252.982L251.971 195.475H250.412L251.915 193.013L250.53 190.717H251.991L253.044 192.563H253.737V190.717H255.122V192.563H255.815L256.875 190.717H258.336L256.951 193.013L258.454 195.475H256.813L255.753 193.67Z" fill="white"/>
<path d="M262.964 191.325C263.299 191.504 263.574 191.779 263.753 192.114C263.948 192.469 264.044 192.87 264.031 193.275C264.041 193.698 263.928 194.115 263.706 194.475C263.483 194.835 263.16 195.122 262.777 195.302C262.344 195.504 261.869 195.601 261.391 195.585C261.026 195.605 260.661 195.544 260.322 195.406C259.983 195.269 259.679 195.058 259.431 194.79C258.92 194.117 258.674 193.281 258.738 192.439C258.696 191.629 258.915 190.827 259.362 190.15C259.834 189.548 260.517 189.148 261.274 189.029L263.539 188.573L263.733 189.762L261.731 190.156C261.285 190.217 260.865 190.402 260.519 190.689C260.239 190.97 260.074 191.345 260.054 191.74C260.262 191.514 260.518 191.337 260.803 191.221C261.103 191.096 261.426 191.035 261.752 191.042C262.173 191.033 262.59 191.13 262.964 191.325ZM262.271 194.167C262.487 193.927 262.604 193.613 262.597 193.289C262.616 192.997 262.518 192.709 262.324 192.488C262.131 192.268 261.857 192.133 261.565 192.114H261.412C261.254 192.106 261.096 192.13 260.947 192.185C260.798 192.24 260.662 192.324 260.546 192.432C260.434 192.544 260.347 192.678 260.29 192.826C260.232 192.973 260.207 193.131 260.214 193.289C260.207 193.452 260.234 193.615 260.292 193.767C260.35 193.919 260.439 194.058 260.553 194.174C260.665 194.287 260.799 194.375 260.947 194.434C261.095 194.492 261.253 194.519 261.412 194.513C261.571 194.52 261.729 194.493 261.876 194.433C262.023 194.374 262.155 194.283 262.264 194.167H262.271Z" fill="white"/>
<path d="M268.443 191.173C268.651 191.38 268.811 191.629 268.913 191.904C269.014 192.178 269.055 192.472 269.032 192.764V195.475H267.743V194.887C267.588 195.124 267.37 195.314 267.113 195.436C266.856 195.558 266.571 195.607 266.289 195.578C265.961 195.582 265.635 195.518 265.333 195.392C265.082 195.28 264.868 195.101 264.716 194.873C264.576 194.652 264.504 194.395 264.508 194.133C264.498 193.931 264.539 193.73 264.626 193.548C264.713 193.366 264.844 193.208 265.007 193.089C265.468 192.8 266.009 192.666 266.552 192.708H267.653C267.661 192.58 267.64 192.451 267.593 192.331C267.545 192.212 267.471 192.104 267.376 192.017C267.142 191.833 266.848 191.745 266.552 191.768C266.297 191.768 266.045 191.81 265.804 191.892C265.579 191.962 265.369 192.07 265.18 192.21L264.689 191.249C264.974 191.055 265.29 190.91 265.624 190.82C265.99 190.724 266.367 190.675 266.746 190.675C267.354 190.626 267.958 190.803 268.443 191.173V191.173ZM267.259 194.458C267.443 194.348 267.583 194.177 267.653 193.974V193.483H266.69C266.122 193.483 265.838 193.67 265.838 194.036C265.835 194.118 265.852 194.2 265.889 194.273C265.925 194.347 265.979 194.411 266.046 194.458C266.214 194.569 266.413 194.624 266.614 194.617C266.837 194.624 267.058 194.568 267.252 194.458H267.259Z" fill="white"/>
<path d="M278.092 194.327V196.484H276.811V195.454H273.458V196.477H272.17V194.327H272.371C272.517 194.321 272.657 194.266 272.768 194.171C272.879 194.075 272.954 193.945 272.98 193.801C273.114 193.326 273.187 192.835 273.195 192.342L273.257 190.696H277.414V194.327H278.092ZM274.31 193.635C274.273 193.89 274.165 194.129 273.998 194.327H276.007V191.83H274.449V192.439C274.431 192.84 274.385 193.24 274.31 193.635V193.635Z" fill="white"/>
<path d="M279.852 195.232C279.463 195.037 279.138 194.735 278.917 194.361C278.695 193.976 278.579 193.54 278.579 193.096C278.579 192.652 278.695 192.215 278.917 191.83C279.142 191.459 279.466 191.158 279.852 190.959C280.271 190.754 280.732 190.648 281.199 190.648C281.666 190.648 282.127 190.754 282.546 190.959C282.931 191.16 283.254 191.461 283.482 191.83C283.699 192.216 283.814 192.652 283.814 193.096C283.814 193.539 283.699 193.975 283.482 194.361C283.256 194.732 282.933 195.033 282.546 195.232C282.128 195.441 281.667 195.549 281.199 195.549C280.732 195.549 280.27 195.441 279.852 195.232V195.232ZM282.075 194.057C282.295 193.784 282.414 193.445 282.414 193.096C282.414 192.746 282.295 192.407 282.075 192.134C281.842 191.904 281.527 191.775 281.199 191.775C280.871 191.775 280.556 191.904 280.323 192.134C280.099 192.405 279.976 192.745 279.976 193.096C279.976 193.447 280.099 193.786 280.323 194.057C280.436 194.174 280.573 194.266 280.725 194.327C280.876 194.388 281.039 194.416 281.203 194.41C281.364 194.416 281.524 194.388 281.674 194.327C281.823 194.266 281.958 194.174 282.068 194.057H282.075Z" fill="white"/>
<path d="M285.657 195.232C285.264 195.038 284.935 194.736 284.708 194.361C284.483 193.977 284.365 193.54 284.365 193.096C284.365 192.651 284.483 192.214 284.708 191.83C284.938 191.458 285.267 191.157 285.657 190.959C286.086 190.743 286.562 190.636 287.042 190.647C287.5 190.636 287.954 190.743 288.358 190.959C288.721 191.162 289.008 191.477 289.176 191.858L288.102 192.432C288.003 192.233 287.85 192.066 287.66 191.951C287.47 191.836 287.251 191.777 287.028 191.782C286.863 191.776 286.698 191.804 286.544 191.865C286.391 191.925 286.251 192.017 286.135 192.134C286.013 192.262 285.919 192.413 285.859 192.579C285.798 192.744 285.772 192.92 285.781 193.096C285.772 193.272 285.798 193.449 285.859 193.616C285.92 193.782 286.013 193.934 286.135 194.064C286.252 194.18 286.392 194.27 286.545 194.331C286.699 194.392 286.863 194.421 287.028 194.416C287.252 194.422 287.472 194.363 287.662 194.247C287.853 194.13 288.006 193.961 288.102 193.759L289.176 194.347C289.004 194.721 288.718 195.031 288.358 195.232C287.953 195.446 287.5 195.555 287.042 195.551C286.561 195.559 286.085 195.45 285.657 195.232V195.232Z" fill="white"/>
<path d="M293.99 191.851H292.376V195.475H290.99V191.844H289.383V190.717H293.983L293.99 191.851Z" fill="white"/>
<path d="M298.278 191.173C298.487 191.379 298.648 191.628 298.751 191.903C298.854 192.177 298.896 192.471 298.873 192.764V195.475H297.578V194.887C297.423 195.123 297.207 195.313 296.951 195.435C296.696 195.557 296.412 195.606 296.13 195.578C295.802 195.583 295.477 195.52 295.174 195.392C294.924 195.28 294.71 195.101 294.558 194.873C294.415 194.652 294.341 194.395 294.343 194.133C294.336 193.931 294.378 193.73 294.466 193.548C294.554 193.366 294.686 193.208 294.849 193.089C295.309 192.799 295.851 192.665 296.394 192.708H297.495C297.501 192.58 297.48 192.452 297.432 192.332C297.384 192.213 297.311 192.105 297.218 192.017C296.984 191.835 296.69 191.746 296.394 191.768C296.139 191.768 295.886 191.81 295.645 191.892C295.421 191.962 295.21 192.07 295.022 192.21L294.53 191.249C294.815 191.054 295.131 190.909 295.465 190.82C295.829 190.724 296.204 190.675 296.581 190.675C297.189 190.625 297.794 190.802 298.278 191.173V191.173ZM297.1 194.458C297.285 194.348 297.425 194.177 297.495 193.974V193.483H296.539C295.971 193.483 295.687 193.67 295.687 194.036C295.684 194.118 295.702 194.199 295.738 194.273C295.774 194.347 295.828 194.41 295.895 194.458C296.066 194.568 296.266 194.623 296.47 194.617C296.691 194.624 296.909 194.569 297.1 194.458V194.458Z" fill="white"/>
<path d="M304.567 194.126C304.574 194.32 304.532 194.513 304.445 194.687C304.357 194.861 304.228 195.01 304.069 195.122C303.635 195.387 303.129 195.511 302.621 195.475H300.086V190.717H302.517C303 190.694 303.48 190.807 303.902 191.042C304.061 191.133 304.192 191.265 304.281 191.425C304.37 191.584 304.414 191.765 304.408 191.948C304.415 192.169 304.352 192.386 304.228 192.57C304.097 192.756 303.917 192.902 303.709 192.992C303.962 193.051 304.186 193.197 304.343 193.404C304.5 193.611 304.579 193.867 304.567 194.126ZM301.346 192.674H302.392C302.877 192.674 303.085 192.501 303.085 192.162C303.085 191.823 302.843 191.65 302.392 191.657H301.326L301.346 192.674ZM303.272 194.015C303.278 193.939 303.264 193.862 303.233 193.792C303.201 193.722 303.153 193.661 303.092 193.614C302.924 193.519 302.731 193.476 302.538 193.49H301.326V194.541H302.489C302.995 194.541 303.251 194.368 303.251 194.015H303.272Z" fill="white"/>
<path d="M307.692 193.67H306.999V195.475H305.613V190.717H306.999V192.563H307.74L309.035 190.717H310.511L308.841 192.999L310.622 195.475H308.945L307.692 193.67Z" fill="white"/>
<path d="M311.28 190.717H312.665V193.552L314.986 190.717H316.253V195.475H314.868V192.639L312.561 195.475H311.28V190.717Z" fill="white"/>
<path d="M100.373 138.269C100.297 138.349 100.21 138.419 100.116 138.477L99.3543 139.03C98.6616 139.5 97.7126 140.171 96.5073 140.987C94.0828 142.619 90.7163 144.846 86.9688 147.211C83.2213 149.576 79.7855 151.741 77.271 153.248C76.0241 154.002 75.0058 154.631 74.2993 155.019L73.4819 155.482C73.2879 155.586 73.1909 155.634 73.184 155.62C73.2617 155.544 73.3476 155.477 73.4403 155.42L74.2231 154.901L77.1393 153.034L86.761 146.907L96.348 140.738L99.2643 138.878L100.061 138.387C100.262 138.311 100.366 138.255 100.373 138.269Z" fill="#FAFAFA"/>
<path d="M88.5551 141.388C88.5551 141.388 88.4789 141.471 88.3057 141.603L87.5437 142.149C86.851 142.626 85.902 143.29 84.6898 144.113C82.2723 145.745 78.9057 147.972 75.1513 150.371C71.3968 152.771 67.9679 154.894 65.4534 156.409L62.4817 158.179L61.6574 158.635C61.5643 158.696 61.4643 158.744 61.3596 158.781C61.3596 158.781 61.4427 158.698 61.6228 158.58L62.4055 158.055L65.3149 156.194L74.9573 150.067L84.5512 143.898L87.4606 142.038L88.2641 141.54C88.3565 141.481 88.4538 141.43 88.5551 141.388Z" fill="#FAFAFA"/>
<path d="M30.2365 161.526C30.1419 161.333 30.0721 161.128 30.0286 160.918C29.9109 160.517 29.7585 159.943 29.5922 159.223C29.1264 157.345 28.88 155.419 28.858 153.483C28.8492 151.527 29.3025 149.596 30.181 147.847C30.4577 147.327 30.7898 146.837 31.1716 146.388C31.3013 146.213 31.4579 146.058 31.6357 145.932C31.1903 146.596 30.781 147.284 30.4096 147.992C29.6183 149.73 29.2119 151.617 29.2182 153.525C29.2441 155.435 29.4529 157.339 29.8416 159.209C30.0283 159.971 30.1603 160.746 30.2365 161.526Z" fill="#FAFAFA"/>
<path d="M2.0781 210.55C2.05022 210.293 2.05022 210.033 2.0781 209.776C2.0781 209.278 2.0781 208.559 2.11966 207.701C2.17508 205.924 2.30669 203.476 2.5145 200.786C2.72231 198.095 2.99247 195.64 3.2072 193.87C3.31804 192.992 3.41501 192.28 3.49121 191.795C3.51913 191.537 3.5725 191.282 3.65053 191.035C3.68692 191.292 3.68692 191.552 3.65053 191.809L3.47736 193.884C3.31804 195.737 3.11715 198.137 2.88856 200.799C2.65997 203.462 2.52143 205.862 2.38981 207.715C2.32747 208.538 2.27205 209.236 2.23049 209.79C2.21375 210.049 2.1625 210.305 2.0781 210.55V210.55Z" fill="#FAFAFA"/>
<path d="M77.9498 223.98C77.9498 224.049 76.6129 224.243 74.5417 224.907C73.3282 225.3 72.1451 225.78 71.002 226.345C69.6102 227.043 68.2761 227.85 67.012 228.759C65.7657 229.693 64.5939 230.722 63.5069 231.836C62.629 232.761 61.8165 233.745 61.0756 234.782C59.8218 236.553 59.233 237.777 59.1706 237.742C59.2643 237.441 59.3921 237.151 59.5516 236.878C59.7103 236.538 59.8884 236.208 60.085 235.889C60.3238 235.458 60.5851 235.04 60.8677 234.637C61.5849 233.568 62.3864 232.557 63.2645 231.615C64.3493 230.467 65.5313 229.414 66.7973 228.468C68.0814 227.55 69.4391 226.738 70.8565 226.041C72.0209 225.485 73.2277 225.023 74.4655 224.658C74.937 224.512 75.4155 224.389 75.8994 224.292C76.2618 224.198 76.6296 224.126 77.0008 224.077C77.3128 224.012 77.6309 223.979 77.9498 223.98V223.98Z" fill="#FAFAFA"/>
<path d="M146.16 182.224C146.151 182.125 146.151 182.026 146.16 181.927C146.16 181.715 146.16 181.424 146.16 181.056C146.16 180.267 146.16 179.14 146.112 177.702C146.07 174.769 146.015 170.558 145.939 165.364C145.752 154.936 145.495 140.551 145.246 124.666C144.996 108.781 144.712 94.3832 144.622 83.9615C144.574 78.7541 144.553 74.5356 144.56 71.6242C144.56 70.1858 144.56 69.0585 144.56 68.2702V67.3988C144.554 67.2998 144.554 67.2005 144.56 67.1014C144.569 67.2004 144.569 67.2999 144.56 67.3988C144.56 67.6155 144.56 67.9059 144.56 68.2702C144.56 69.0585 144.56 70.1858 144.609 71.6242C144.65 74.5564 144.706 78.768 144.782 83.9615C144.969 94.3901 145.225 108.774 145.474 124.659C145.724 140.544 146.001 154.943 146.098 165.364C146.146 170.572 146.16 174.79 146.153 177.702C146.153 179.14 146.153 180.267 146.153 181.056C146.153 181.422 146.153 181.713 146.153 181.927C146.153 182.141 146.16 182.224 146.16 182.224Z" fill="#FAFAFA"/>
<path d="M346.582 303.195C364.908 302.463 379.17 287.039 378.437 268.743C377.704 250.448 362.254 236.21 343.928 236.941C325.603 237.673 311.341 253.097 312.074 271.393C312.806 289.688 328.256 303.926 346.582 303.195Z" fill="#263238"/>
<path d="M312.042 269.533C312.042 269.533 312.042 269.588 312.042 269.616C311.915 278.407 315.291 286.888 321.428 293.194C327.565 299.499 335.959 303.113 344.765 303.239C353.57 303.366 362.066 299.995 368.382 293.868C374.698 287.742 378.317 279.361 378.444 270.57V270.487L312.042 269.533Z" fill="#263238"/>
<path d="M321.927 269.761C321.861 274.363 323.164 278.88 325.67 282.743C328.177 286.605 331.774 289.639 336.007 291.461C340.24 293.282 344.919 293.81 349.453 292.977C353.986 292.144 358.171 289.988 361.477 286.781C364.783 283.574 367.062 279.461 368.027 274.96C368.992 270.46 368.598 265.776 366.896 261.499C365.194 257.222 362.26 253.545 358.465 250.932C354.67 248.32 350.185 246.89 345.575 246.822C342.514 246.778 339.473 247.335 336.627 248.464C333.782 249.593 331.187 251.27 328.991 253.4C326.794 255.531 325.04 258.072 323.828 260.879C322.616 263.686 321.97 266.705 321.927 269.761V269.761Z" fill="#FAFAFA"/>
<path d="M345.575 246.822C342.514 246.778 339.473 247.335 336.628 248.464C333.782 249.593 331.187 251.27 328.991 253.4C326.794 255.531 325.04 258.072 323.828 260.879C322.616 263.686 321.97 266.705 321.927 269.761L368.545 270.453C368.593 267.395 368.037 264.358 366.908 261.515C365.779 258.672 364.1 256.079 361.966 253.884C359.833 251.69 357.287 249.936 354.475 248.725C351.662 247.513 348.638 246.867 345.575 246.822Z" fill="#E0E0E0"/>
<path d="M331.036 269.893C330.996 272.696 331.79 275.448 333.317 277.801C334.844 280.153 337.036 282.001 339.614 283.111C342.193 284.22 345.044 284.542 347.806 284.034C350.567 283.527 353.116 282.213 355.13 280.259C357.144 278.306 358.533 275.8 359.121 273.058C359.708 270.317 359.469 267.463 358.432 264.858C357.395 262.252 355.608 260.012 353.296 258.421C350.984 256.829 348.252 255.958 345.444 255.916C343.578 255.889 341.726 256.229 339.992 256.916C338.258 257.604 336.677 258.626 335.339 259.924C334.001 261.222 332.932 262.77 332.194 264.481C331.455 266.191 331.062 268.03 331.036 269.893V269.893Z" fill="#263238"/>
<path d="M301.589 279.173C301.589 279.173 296.525 232.148 345.333 232.148C390.359 232.148 389.361 272.597 388.973 278.848H381.88C381.88 278.848 385.475 238.994 345.333 238.994C305.191 238.994 308.689 279.657 308.689 279.657C308.689 279.657 305.724 279.512 301.589 279.173Z" fill="#455A64"/>
<path d="M327.731 237.023C327.605 237.078 327.476 237.124 327.344 237.161C327.094 237.244 326.713 237.334 326.235 237.5C324.883 237.934 323.56 238.451 322.273 239.049C318.004 241.001 314.223 243.874 311.202 247.462C308.181 251.05 305.995 255.262 304.803 259.796C304.437 261.16 304.157 262.546 303.965 263.945C303.882 264.436 303.854 264.83 303.819 265.093C303.812 265.23 303.787 265.365 303.743 265.494C303.734 265.358 303.734 265.222 303.743 265.086C303.743 264.824 303.743 264.429 303.826 263.925C303.961 262.504 304.204 261.096 304.554 259.713C305.691 255.11 307.87 250.829 310.924 247.199C313.978 243.569 317.825 240.686 322.169 238.773C323.475 238.192 324.823 237.709 326.201 237.327C326.685 237.182 327.073 237.113 327.33 237.051C327.461 237.021 327.597 237.012 327.731 237.023V237.023Z" fill="#FAFAFA"/>
<path d="M447.611 284.872L453.519 293.737L456.172 302.091C456.216 302.235 456.289 302.367 456.387 302.481C456.485 302.595 456.606 302.687 456.741 302.752C456.876 302.817 457.024 302.853 457.174 302.859C457.324 302.864 457.474 302.838 457.613 302.783V302.783C457.781 302.723 457.933 302.623 458.053 302.492C458.174 302.36 458.261 302.202 458.306 302.029C458.846 299.844 460.793 291.794 460.329 291.172C459.781 290.446 454.718 281.407 454.718 281.407L447.611 284.872Z" fill="#FF0001"/>
<g opacity="0.6">
<path opacity="0.6" d="M457.613 302.783L459.906 290.563L460.148 290.943C460.358 291.272 460.444 291.664 460.391 292.05C460.238 293.087 459.774 295.93 458.313 302.015C458.27 302.19 458.184 302.352 458.063 302.486C457.942 302.62 457.79 302.722 457.62 302.783H457.613Z" fill="white"/>
</g>
<g opacity="0.6">
<path opacity="0.6" d="M456.214 288.827C456.16 288.98 456.162 289.147 456.219 289.299C456.276 289.45 456.385 289.577 456.526 289.657C456.676 289.72 456.845 289.724 456.998 289.667C457.151 289.611 457.277 289.498 457.35 289.353C457.413 289.192 457.414 289.014 457.353 288.853C457.291 288.692 457.172 288.559 457.017 288.481C456.854 288.437 456.68 288.454 456.528 288.529C456.376 288.604 456.257 288.733 456.193 288.89" fill="white"/>
</g>
<path d="M457.184 297.548C456.798 297.372 456.372 297.303 455.95 297.348C455.528 297.393 455.127 297.55 454.787 297.804C454.787 297.804 454.835 297.645 455.029 297.486C455.284 297.278 455.595 297.15 455.923 297.119C456.251 297.08 456.583 297.138 456.879 297.285C457.101 297.403 457.184 297.527 457.184 297.548Z" fill="#263238"/>
<path d="M457.301 299.159C456.951 299.177 456.601 299.216 456.255 299.277C455.93 299.404 455.613 299.551 455.306 299.719C455.251 299.719 455.563 299.221 456.193 299.028C456.375 298.959 456.57 298.936 456.763 298.958C456.956 298.981 457.141 299.05 457.301 299.159V299.159Z" fill="#263238"/>
<path d="M457.391 295.252C456.85 295.235 456.308 295.258 455.771 295.321C455.249 295.463 454.737 295.641 454.24 295.854C454.653 295.463 455.169 295.199 455.728 295.093C456.286 294.986 456.863 295.041 457.391 295.252V295.252Z" fill="#263238"/>
<path d="M455.798 292.403C455.798 292.472 455.175 292.582 454.517 292.97C453.859 293.357 453.436 293.834 453.381 293.793C453.585 293.338 453.947 292.973 454.399 292.762C454.811 292.487 455.304 292.36 455.798 292.403V292.403Z" fill="#263238"/>
<path d="M454.157 289.761C453.672 289.846 453.212 290.033 452.806 290.31C452.4 290.587 452.057 290.946 451.801 291.365C451.801 291.365 451.801 291.179 451.933 290.93C452.113 290.604 452.367 290.325 452.674 290.114C452.99 289.914 453.348 289.794 453.72 289.761C453.983 289.692 454.157 289.761 454.157 289.761Z" fill="#263238"/>
<path d="M452.501 289.795C452.404 289.701 452.326 289.588 452.272 289.464C452.105 289.132 452.006 288.769 451.981 288.399C451.94 288.131 451.986 287.857 452.113 287.617C452.163 287.542 452.236 287.485 452.32 287.452C452.404 287.42 452.497 287.415 452.584 287.437C452.751 287.489 452.894 287.6 452.986 287.748C453.156 288.064 453.211 288.429 453.141 288.781C453.072 289.133 452.882 289.45 452.605 289.678C452.326 289.897 451.988 290.028 451.634 290.055C451.28 290.082 450.926 290.004 450.617 289.83C450.539 289.785 450.472 289.724 450.42 289.651C450.367 289.579 450.331 289.496 450.312 289.408C450.305 289.317 450.326 289.226 450.373 289.148C450.421 289.07 450.491 289.008 450.575 288.973C450.828 288.882 451.101 288.86 451.365 288.91C451.731 288.95 452.087 289.053 452.418 289.215C452.653 289.332 452.764 289.429 452.757 289.443C452.316 289.253 451.849 289.127 451.372 289.069C451.138 289.037 450.9 289.064 450.679 289.145C450.633 289.163 450.593 289.196 450.567 289.238C450.54 289.281 450.529 289.331 450.534 289.381C450.567 289.495 450.644 289.592 450.748 289.65C451.019 289.792 451.325 289.853 451.63 289.826C451.934 289.799 452.225 289.685 452.466 289.498C452.702 289.307 452.865 289.04 452.928 288.743C452.991 288.446 452.951 288.137 452.813 287.866C452.754 287.758 452.658 287.674 452.543 287.631C452.495 287.618 452.445 287.621 452.399 287.638C452.353 287.656 452.314 287.687 452.286 287.728C452.171 287.939 452.127 288.181 452.162 288.419C452.195 288.894 452.31 289.36 452.501 289.795V289.795Z" fill="#263238"/>
<path d="M442 289.948L441.307 298.841C441.307 298.841 450.153 301.87 450.187 303.523L432.87 303.481L433.348 289.581L442 289.948Z" fill="#FF0001"/>
<g opacity="0.6">
<path opacity="0.6" d="M436.001 297.88C435.83 297.921 435.682 298.025 435.585 298.172C435.489 298.318 435.452 298.495 435.481 298.668C435.523 298.836 435.625 298.982 435.769 299.078C435.912 299.174 436.086 299.212 436.257 299.187C436.436 299.142 436.592 299.032 436.693 298.879C436.794 298.725 436.834 298.539 436.804 298.357C436.778 298.269 436.734 298.188 436.675 298.118C436.617 298.047 436.545 297.989 436.463 297.947C436.382 297.904 436.293 297.878 436.202 297.87C436.111 297.862 436.019 297.873 435.932 297.9" fill="white"/>
</g>
<g opacity="0.6">
<path opacity="0.6" d="M432.87 303.481L432.918 302.098L449.661 302.714C449.837 302.807 449.987 302.942 450.098 303.108C450.21 303.273 450.278 303.463 450.298 303.661L432.87 303.481Z" fill="white"/>
</g>
<path d="M441.612 298.751C441.612 298.834 441.182 298.855 440.753 299.111C440.323 299.367 440.06 299.712 440.012 299.678C439.963 299.643 440.081 299.159 440.607 298.855C441.134 298.551 441.633 298.689 441.612 298.751Z" fill="#263238"/>
<path d="M443.399 299.588C443.399 299.671 443.046 299.802 442.706 300.148C442.367 300.494 442.304 300.84 442.221 300.84C442.138 300.84 442.104 300.349 442.485 299.927C442.866 299.505 443.399 299.505 443.399 299.588Z" fill="#263238"/>
<path d="M444.348 301.801C444.265 301.801 444.168 301.386 444.403 300.936C444.639 300.487 445.041 300.314 445.096 300.383C445.151 300.452 444.874 300.694 444.687 301.075C444.5 301.455 444.431 301.794 444.348 301.801Z" fill="#263238"/>
<path d="M441.542 296.718C441.501 296.794 441.12 296.663 440.642 296.676C440.164 296.69 439.783 296.829 439.741 296.753C439.7 296.676 440.067 296.393 440.635 296.386C441.203 296.379 441.584 296.676 441.542 296.718Z" fill="#263238"/>
<g opacity="0.3">
<path opacity="0.3" d="M441.868 291.704L441.75 293.295L433.237 292.88L433.285 291.448L441.868 291.704Z" fill="black"/>
</g>
<path d="M441.646 294.927C441.357 294.989 441.056 294.975 440.774 294.885C440.46 294.829 440.155 294.734 439.866 294.602C439.696 294.519 439.531 294.424 439.374 294.318C439.278 294.264 439.193 294.191 439.125 294.104C439.074 294.04 439.046 293.961 439.046 293.879C439.046 293.797 439.074 293.718 439.125 293.654C439.169 293.598 439.226 293.552 439.291 293.521C439.356 293.49 439.427 293.474 439.499 293.475C439.61 293.481 439.719 293.502 439.825 293.537C440.008 293.589 440.187 293.659 440.358 293.744C440.647 293.882 440.909 294.07 441.134 294.297C441.522 294.685 441.646 294.989 441.619 295.024C441.591 295.058 441.397 294.775 440.995 294.45C440.63 294.151 440.205 293.934 439.748 293.813C439.568 293.758 439.409 293.751 439.36 293.813C439.312 293.876 439.36 293.862 439.36 293.917C439.417 293.974 439.48 294.025 439.547 294.069C439.7 294.173 439.852 294.27 439.998 294.353C440.263 294.492 440.538 294.61 440.822 294.705C441.102 294.759 441.377 294.833 441.646 294.927V294.927Z" fill="#263238"/>
<path d="M441.529 295.037C441.375 294.784 441.307 294.488 441.335 294.194C441.329 293.874 441.381 293.555 441.487 293.253C441.551 293.073 441.632 292.899 441.729 292.735C441.779 292.62 441.858 292.521 441.96 292.448C442.061 292.375 442.18 292.331 442.304 292.32C442.381 292.325 442.455 292.352 442.517 292.398C442.58 292.443 442.628 292.504 442.658 292.576C442.694 292.679 442.719 292.785 442.734 292.894C442.762 293.089 442.762 293.287 442.734 293.481C442.674 293.803 442.536 294.104 442.332 294.36C441.972 294.795 441.639 294.878 441.639 294.851C441.639 294.823 441.91 294.657 442.187 294.235C442.347 293.994 442.454 293.72 442.498 293.433C442.523 293.268 442.523 293.1 442.498 292.935C442.498 292.748 442.415 292.596 442.346 292.61C442.277 292.624 442.11 292.741 442.034 292.887C441.942 293.032 441.863 293.184 441.799 293.343C441.693 293.618 441.625 293.907 441.598 294.201C441.494 294.712 441.577 295.031 441.529 295.037Z" fill="#263238"/>
<path d="M448.338 216.691C448.338 216.691 451.517 223.199 452.349 227.839C452.584 229.16 443.246 295.86 443.246 295.86L432.205 295.445L437.372 233.372L435.537 220.924L448.338 216.691Z" fill="#263238"/>
<path d="M421.516 220.765C421.44 225.27 421.671 229.776 422.209 234.25C423.02 240.792 424.897 248.233 425.506 252.396C426.85 261.608 429.496 263.35 429.496 263.35L450.672 290.411L458.985 282.949L440.282 253.122C440.282 253.122 435.301 220.025 435.481 220.917C435.661 221.809 421.516 220.765 421.516 220.765Z" fill="#263238"/>
<path d="M429.94 263.731C429.996 263.832 430.064 263.927 430.141 264.014L430.743 264.796L432.939 267.631L440.206 277.119C443.032 280.833 445.616 284.187 447.527 286.573C448.476 287.776 449.259 288.73 449.806 289.387L450.451 290.141C450.522 290.229 450.598 290.312 450.679 290.39C450.627 290.288 450.562 290.192 450.485 290.107L449.883 289.332L447.659 286.469C445.782 284.028 443.226 280.681 440.393 276.981C437.559 273.281 434.983 269.92 433.071 267.527C432.122 266.331 431.339 265.37 430.785 264.713L430.147 263.966C430.086 263.881 430.017 263.802 429.94 263.731V263.731Z" fill="#455A64"/>
<path d="M427.578 225.834C427.556 226.202 427.454 226.56 427.28 226.885C426.912 227.695 426.388 228.424 425.738 229.032C425.088 229.639 424.324 230.113 423.491 230.426C423.159 230.587 422.793 230.665 422.424 230.654C423.565 230.234 424.609 229.59 425.495 228.758C426.38 227.926 427.089 226.924 427.578 225.813V225.834Z" fill="#455A64"/>
<path d="M450.437 222.058C449.929 222.285 449.367 222.362 448.817 222.28C448.267 222.198 447.752 221.96 447.333 221.594C447.382 221.505 448.026 221.809 448.871 221.926C449.716 222.044 450.416 221.989 450.437 222.058Z" fill="#455A64"/>
<path d="M438.481 231.249C438.525 231.392 438.55 231.541 438.557 231.691C438.598 232.009 438.654 232.431 438.716 232.964C438.848 234.112 439.028 235.73 439.257 237.708C439.679 241.781 440.275 247.389 440.954 253.849V253.779L444.022 258.676L454.683 275.798L457.876 281.013C458.237 281.608 458.521 282.085 458.728 282.437C458.837 282.599 458.93 282.77 459.005 282.949C458.883 282.799 458.77 282.642 458.666 282.479L457.759 281.096L454.468 275.93L443.718 258.855C442.665 257.175 441.639 255.536 440.656 253.959V253.918V253.883C440.025 247.445 439.478 241.802 439.083 237.722L438.654 232.971C438.612 232.438 438.578 232.009 438.55 231.691C438.519 231.545 438.496 231.397 438.481 231.249Z" fill="#455A64"/>
<path d="M435.294 173.117L441.944 175.24L442.443 189.23C442.443 189.23 446.003 205.627 446.765 207.722C447.677 210.208 448.354 212.773 448.788 215.384C448.788 215.384 447.514 224.665 438.224 225.758C428.935 226.85 420.29 221.525 420.29 221.525C420.29 221.525 417.187 207.694 414.347 195.288C411.645 183.483 413.841 176.443 413.841 176.443L424.024 172.792L435.294 173.117Z" fill="#FF0001"/>
<path d="M440.209 180.9L434.137 181.634L434.326 183.192L440.398 182.459L440.209 180.9Z" fill="#FAFAFA"/>
<path d="M441.667 164.133C441.599 163.798 441.413 163.498 441.142 163.289C440.871 163.079 440.534 162.974 440.192 162.992C440.344 162.874 440.465 162.72 440.544 162.543C440.622 162.367 440.656 162.174 440.642 161.982C440.627 161.789 440.565 161.603 440.461 161.441C440.358 161.278 440.215 161.143 440.046 161.049C440.369 160.555 440.497 159.96 440.406 159.378C440.315 158.796 440.012 158.268 439.554 157.895L432.572 167.501C433.11 167.926 433.729 168.238 434.39 168.419C435.052 168.599 435.744 168.645 436.423 168.552C437.782 168.352 439.087 167.882 440.261 167.169C440.588 167.032 440.859 166.789 441.03 166.478C441.161 166.153 440.968 165.682 440.614 165.682C440.948 165.595 441.238 165.389 441.431 165.105C441.625 164.82 441.709 164.475 441.667 164.133V164.133Z" fill="#263238"/>
<path d="M424.343 158.926C424.21 158.884 424.068 158.885 423.936 158.929C423.805 158.973 423.69 159.058 423.609 159.171C423.529 159.283 423.486 159.419 423.487 159.558C423.488 159.696 423.533 159.831 423.615 159.942C423.408 159.914 423.197 159.943 423.005 160.025C422.813 160.106 422.646 160.239 422.523 160.408C422.4 160.577 422.325 160.776 422.307 160.983C422.288 161.191 422.326 161.4 422.417 161.588C421.927 161.568 421.443 161.701 421.032 161.969C420.828 162.112 420.669 162.309 420.571 162.537C420.473 162.765 420.441 163.016 420.477 163.262C420.538 163.498 420.688 163.702 420.896 163.831C421.104 163.96 421.353 164.004 421.593 163.954C421.471 164.167 421.413 164.41 421.425 164.655C421.437 164.9 421.519 165.137 421.662 165.337C421.74 165.427 421.837 165.5 421.945 165.55C422.054 165.6 422.173 165.626 422.292 165.626C422.412 165.626 422.53 165.6 422.639 165.55C422.748 165.5 422.845 165.427 422.923 165.337C422.793 165.516 422.728 165.733 422.736 165.954C422.744 166.175 422.825 166.387 422.967 166.557C423.109 166.727 423.304 166.844 423.52 166.891C423.737 166.938 423.963 166.912 424.163 166.817C424.108 167.039 424.125 167.272 424.211 167.484C424.297 167.696 424.448 167.875 424.643 167.996C424.837 168.117 425.065 168.174 425.293 168.158C425.521 168.143 425.739 168.056 425.915 167.909L424.343 158.926Z" fill="#263238"/>
<path d="M424.772 157.079L424.467 174.085C424.445 175.426 424.933 176.726 425.833 177.722C426.733 178.718 427.978 179.336 429.316 179.451V179.451C430.039 179.515 430.766 179.43 431.454 179.201C432.143 178.973 432.776 178.605 433.317 178.123C433.857 177.64 434.292 177.051 434.595 176.393C434.899 175.736 435.063 175.023 435.08 174.299C435.08 172.681 435.135 171.353 435.135 171.353C435.135 171.353 439.291 171.083 439.7 166.996C439.942 164.638 440.005 159.237 440.018 155.102C440.024 153.753 439.521 152.451 438.61 151.454C437.699 150.458 436.446 149.839 435.1 149.721L432.62 149.5C431.603 149.47 430.59 149.643 429.641 150.01C428.692 150.377 427.826 150.93 427.094 151.636C426.362 152.343 425.78 153.188 425.381 154.123C424.982 155.058 424.775 156.063 424.772 157.079Z" fill="#FFBE9D"/>
<path d="M435.121 171.353C433.23 171.182 431.427 170.474 429.926 169.313C429.926 169.313 430.979 172.404 435.1 172.397L435.121 171.353Z" fill="#EB996E"/>
<path d="M438.862 159.251C438.785 159.32 438.37 158.954 437.739 158.898C437.109 158.843 436.617 159.12 436.562 159.037C436.507 158.954 436.617 158.871 436.832 158.739C437.121 158.578 437.452 158.509 437.781 158.539C438.109 158.563 438.421 158.694 438.668 158.912C438.848 159.057 438.903 159.223 438.862 159.251Z" fill="#263238"/>
<path d="M432.177 159.528C432.163 159.679 432.091 159.82 431.977 159.92C431.862 160.02 431.713 160.073 431.561 160.067C431.485 160.066 431.411 160.05 431.342 160.021C431.273 159.991 431.211 159.948 431.158 159.894C431.106 159.84 431.065 159.776 431.038 159.706C431.011 159.636 430.998 159.561 431 159.486C431.012 159.334 431.083 159.192 431.198 159.092C431.313 158.991 431.463 158.939 431.616 158.947C431.691 158.948 431.765 158.963 431.834 158.993C431.904 159.023 431.966 159.066 432.018 159.12C432.07 159.174 432.111 159.238 432.139 159.308C432.166 159.378 432.179 159.452 432.177 159.528V159.528Z" fill="#263238"/>
<path d="M438.301 160.074C438.29 160.227 438.219 160.369 438.104 160.47C437.988 160.571 437.837 160.623 437.684 160.613C437.609 160.613 437.535 160.598 437.465 160.569C437.396 160.539 437.334 160.496 437.282 160.442C437.23 160.387 437.19 160.323 437.164 160.253C437.138 160.182 437.126 160.107 437.13 160.032C437.141 159.879 437.211 159.737 437.327 159.636C437.442 159.535 437.593 159.483 437.746 159.493C437.821 159.495 437.895 159.511 437.963 159.541C438.031 159.572 438.093 159.615 438.144 159.669C438.196 159.723 438.236 159.786 438.263 159.856C438.29 159.925 438.302 159.999 438.301 160.074V160.074Z" fill="#263238"/>
<path d="M432.738 158.712C432.655 158.781 432.239 158.414 431.616 158.359C430.993 158.304 430.494 158.58 430.431 158.497C430.369 158.414 430.487 158.331 430.702 158.2C430.992 158.036 431.326 157.966 431.658 157.999C431.985 158.027 432.296 158.158 432.544 158.373C432.724 158.539 432.773 158.677 432.738 158.712Z" fill="#263238"/>
<path d="M434.608 163.573C434.95 163.5 435.299 163.47 435.648 163.483C435.807 163.483 435.966 163.483 436.001 163.352C436.031 163.188 436.009 163.019 435.938 162.868C435.821 162.467 435.696 162.045 435.571 161.602C435.224 160.527 434.96 159.426 434.782 158.31C435.222 159.354 435.574 160.432 435.835 161.533C435.952 161.976 436.07 162.398 436.181 162.799C436.254 163.007 436.254 163.234 436.181 163.442C436.152 163.495 436.112 163.542 436.062 163.578C436.013 163.613 435.957 163.638 435.897 163.649C435.805 163.662 435.712 163.662 435.62 163.649C435.281 163.665 434.941 163.64 434.608 163.573V163.573Z" fill="#263238"/>
<path d="M432.717 163.843C432.821 163.843 432.759 164.534 433.306 165.067C433.853 165.599 434.581 165.592 434.574 165.689C434.567 165.786 434.401 165.807 434.096 165.786C433.695 165.758 433.317 165.589 433.029 165.309C432.753 165.038 432.591 164.672 432.579 164.285C432.579 164.002 432.669 163.836 432.717 163.843Z" fill="#263238"/>
<path d="M433.078 156.685C433.001 156.844 432.385 156.685 431.637 156.734C430.889 156.782 430.251 156.907 430.189 156.734C430.127 156.561 430.272 156.505 430.522 156.36C430.861 156.181 431.239 156.086 431.623 156.084C432.003 156.069 432.381 156.148 432.724 156.312C432.988 156.457 433.112 156.602 433.078 156.685Z" fill="#263238"/>
<path d="M438.938 157.446C438.813 157.577 438.391 157.391 437.871 157.335C437.352 157.28 436.894 157.335 436.811 157.19C436.728 157.045 436.853 156.976 437.061 156.858C437.333 156.715 437.642 156.659 437.947 156.699C438.253 156.734 438.541 156.862 438.772 157.066C438.945 157.225 438.986 157.377 438.938 157.446Z" fill="#263238"/>
<path d="M425.88 160.274C425.811 160.274 423.11 159.196 422.978 161.996C422.846 164.797 425.673 164.382 425.686 164.299C425.7 164.216 425.88 160.274 425.88 160.274Z" fill="#FFBE9D"/>
<path d="M424.883 163.207C424.883 163.207 424.834 163.207 424.751 163.269C424.634 163.317 424.502 163.317 424.384 163.269C424.21 163.144 424.072 162.975 423.984 162.779C423.896 162.584 423.862 162.368 423.885 162.155C423.893 161.915 423.952 161.679 424.059 161.464C424.09 161.378 424.141 161.301 424.209 161.24C424.276 161.178 424.358 161.134 424.447 161.111C424.503 161.098 424.563 161.106 424.615 161.133C424.667 161.159 424.708 161.203 424.731 161.256C424.765 161.339 424.731 161.395 424.731 161.402C424.731 161.409 424.793 161.353 424.779 161.236C424.764 161.167 424.727 161.104 424.675 161.056C424.602 160.995 424.507 160.965 424.412 160.973C424.295 160.988 424.184 161.033 424.09 161.104C423.995 161.174 423.92 161.267 423.872 161.374C423.74 161.612 423.669 161.877 423.664 162.149C423.635 162.397 423.681 162.649 423.796 162.872C423.91 163.095 424.089 163.279 424.308 163.4C424.382 163.427 424.461 163.436 424.539 163.428C424.617 163.419 424.692 163.393 424.758 163.352C424.876 163.262 424.897 163.207 424.883 163.207Z" fill="#EB996E"/>
<path d="M424.329 160.039C424.597 160.045 424.858 160.124 425.085 160.266C425.312 160.409 425.496 160.61 425.617 160.848C425.763 161.263 425.763 161.72 425.908 162.135C426.054 162.55 426.435 162.951 426.871 162.888C427.019 162.854 427.156 162.782 427.267 162.678C427.379 162.575 427.462 162.445 427.508 162.301C427.597 162.01 427.628 161.704 427.598 161.402C427.55 160.081 427.391 158.76 427.453 157.439C427.463 156.109 427.868 154.812 428.617 153.712C428.999 153.164 429.523 152.731 430.133 152.458C430.743 152.185 431.416 152.083 432.08 152.163C432.939 152.308 433.701 152.854 434.553 153.027C435.062 153.139 435.59 153.135 436.097 153.016C436.605 152.896 437.078 152.663 437.483 152.335C437.664 152.215 437.852 152.104 438.044 152.003C438.059 151.692 437.985 151.382 437.83 151.111C436.25 149.376 433.202 148.663 430.903 149.037C429.726 149.22 428.603 149.657 427.611 150.316C426.62 150.975 425.783 151.841 425.16 152.854C423.996 154.887 424.024 157.861 424.37 160.053" fill="#263238"/>
<path d="M440.517 154.403C440.267 154.795 439.919 155.116 439.507 155.333C439.096 155.55 438.634 155.656 438.169 155.641C437.236 155.602 436.319 155.386 435.467 155.005C434.118 154.537 432.726 154.203 431.311 154.009C431.173 154.009 431.006 154.009 430.944 153.864C430.882 153.718 431.034 153.525 431.186 153.428C432.496 152.577 435.495 152.252 437.054 152.322C437.834 152.34 438.597 152.558 439.27 152.954C439.943 153.35 440.503 153.91 440.898 154.583" fill="#263238"/>
<path d="M440.109 154.472C439.297 153.452 438.119 152.787 436.825 152.619C434.34 152.412 431.846 152.893 429.617 154.01C427.388 155.126 425.51 156.834 424.19 158.947C423.94 157.753 423.812 156.536 423.809 155.316C423.885 154.486 424.821 149.576 430.044 148.463C430.064 148.463 438.017 146.215 440.109 154.472Z" fill="#FF0001"/>
<path d="M424.737 157.896C426.583 155.618 428.899 153.764 431.526 152.46C434.618 151.058 437.877 150.056 441.224 149.479C442.081 149.276 442.972 149.262 443.835 149.438C444.266 149.529 444.662 149.741 444.977 150.048C445.292 150.355 445.514 150.746 445.616 151.174C445.796 152.259 443.766 153.725 442.845 154.293C441.924 154.791 440.979 155.241 440.012 155.641C440.012 155.641 440.206 153.677 437.095 152.992C432.849 152.066 424.737 157.896 424.737 157.896Z" fill="#FF0001"/>
<path d="M444.396 149.569C444.396 149.611 444.085 149.459 443.503 149.431C442.675 149.407 441.847 149.462 441.03 149.597C438.325 150.051 435.679 150.803 433.14 151.837C430.58 152.813 428.229 154.266 426.213 156.118C425.612 156.684 425.082 157.32 424.634 158.013C424.329 158.511 424.211 158.822 424.176 158.808C424.187 158.728 424.208 158.649 424.239 158.573C424.312 158.356 424.402 158.146 424.509 157.944C424.922 157.209 425.435 156.534 426.033 155.938C428.031 154.003 430.402 152.492 433.001 151.499C435.568 150.463 438.253 149.75 440.995 149.376C441.83 149.257 442.677 149.238 443.517 149.32C443.755 149.336 443.989 149.392 444.209 149.486C444.334 149.521 444.403 149.555 444.396 149.569Z" fill="#263238"/>
<path d="M434.262 150.655C435.279 150.223 436.36 149.959 437.462 149.873C437.219 149.65 436.949 149.457 436.659 149.299C435.803 149.36 434.963 149.561 434.172 149.894L434.262 150.655Z" fill="#FAFAFA"/>
<path d="M440.559 155.869C440.687 155.69 440.765 155.479 440.785 155.259C440.805 155.04 440.767 154.818 440.673 154.619C440.579 154.419 440.434 154.247 440.252 154.122C440.07 153.997 439.858 153.922 439.637 153.905C439.783 153.849 439.916 153.762 440.026 153.652C440.137 153.541 440.223 153.408 440.279 153.262C440.335 153.117 440.36 152.961 440.352 152.804C440.344 152.648 440.304 152.496 440.233 152.356C440.07 152.084 439.821 151.874 439.525 151.759C439.229 151.644 438.903 151.63 438.598 151.72C438.296 151.819 438.022 151.988 437.799 152.214C437.576 152.441 437.411 152.717 437.317 153.02C437.19 152.827 437.015 152.67 436.809 152.564C436.603 152.458 436.373 152.408 436.142 152.417C435.91 152.426 435.685 152.494 435.488 152.616C435.291 152.737 435.129 152.907 435.017 153.11C434.99 153.022 434.945 152.941 434.886 152.871C434.826 152.801 434.754 152.743 434.672 152.701C434.59 152.659 434.5 152.634 434.409 152.627C434.317 152.62 434.225 152.631 434.137 152.66C433.785 152.769 433.462 152.959 433.195 153.214C432.924 153.468 432.576 153.626 432.205 153.663L431.955 153.767C432.155 154.086 432.464 154.321 432.825 154.429C433.185 154.537 433.573 154.511 433.916 154.355C433.913 154.59 433.987 154.821 434.126 155.011C434.266 155.201 434.464 155.34 434.69 155.408C434.916 155.476 435.158 155.469 435.379 155.387C435.601 155.306 435.79 155.155 435.918 154.956C435.961 155.13 436.046 155.29 436.167 155.423C436.288 155.555 436.44 155.655 436.61 155.713C436.779 155.772 436.96 155.787 437.137 155.757C437.314 155.728 437.481 155.654 437.622 155.544C437.699 155.747 437.822 155.929 437.982 156.075C438.142 156.221 438.334 156.328 438.543 156.387C438.752 156.445 438.972 156.454 439.185 156.412C439.398 156.37 439.598 156.279 439.769 156.146C439.948 156.424 440.065 156.737 440.112 157.064C440.159 157.391 440.134 157.724 440.039 158.041C440.265 157.986 440.471 157.871 440.636 157.707C440.801 157.544 440.918 157.339 440.974 157.114C441.027 156.888 441.016 156.653 440.943 156.433C440.87 156.213 440.737 156.018 440.559 155.869V155.869Z" fill="#263238"/>
<path d="M428.866 155.192C427.897 155.617 426.97 156.131 426.095 156.727C425.199 157.317 424.481 158.139 424.017 159.106L425.402 160.427C425.777 160.558 426.095 160.689 426.386 160.427C426.536 160.296 426.65 160.13 426.719 159.944C426.788 159.758 426.809 159.558 426.781 159.362C426.972 159.419 427.176 159.419 427.368 159.361C427.559 159.304 427.729 159.191 427.857 159.038C427.984 158.885 428.064 158.697 428.086 158.499C428.108 158.301 428.071 158.101 427.979 157.923C428.117 157.888 428.242 157.818 428.344 157.72C428.446 157.622 428.521 157.499 428.561 157.363C428.598 157.227 428.598 157.084 428.561 156.948C428.525 156.812 428.453 156.688 428.353 156.588C428.51 156.581 428.662 156.527 428.789 156.434C428.915 156.341 429.012 156.213 429.067 156.066C429.121 155.918 429.131 155.758 429.096 155.605C429.06 155.453 428.98 155.313 428.866 155.205V155.192Z" fill="#263238"/>
<path d="M441.944 175.24C441.944 175.24 446.038 177.695 447.271 179.873C448.504 182.051 455.057 198.013 454.78 200.62C454.503 203.227 448.366 204.845 448.366 204.845L441.944 196.546L444.881 194.797L441.944 189.147V175.24Z" fill="#FF0001"/>
<path d="M448.338 204.831C448.338 204.831 433.459 207.798 428.056 201.408L429.621 195.979C429.621 195.979 439.451 198.296 442.526 197.3L448.338 204.831Z" fill="#FFBE9D"/>
<path d="M449.876 191.636C449.924 191.747 448.13 192.494 446.253 193.932C444.376 195.371 443.191 196.906 443.094 196.83C443.266 196.444 443.5 196.089 443.787 195.779C444.449 194.991 445.192 194.275 446.003 193.642C446.823 193.02 447.708 192.489 448.643 192.058C449.026 191.847 449.443 191.704 449.876 191.636Z" fill="#263238"/>
<path d="M445.103 194.569C444.57 193.73 444.122 192.84 443.766 191.913C443.289 191.045 442.881 190.141 442.547 189.209C443.198 189.97 443.72 190.832 444.092 191.761C444.559 192.645 444.9 193.59 445.103 194.569V194.569Z" fill="#263238"/>
<path d="M442.401 187.888C442.362 187.105 442.239 186.328 442.034 185.571C441.912 184.797 441.713 184.037 441.439 183.303C441.482 184.086 441.605 184.862 441.806 185.62C441.928 186.394 442.127 187.154 442.401 187.888V187.888Z" fill="#263238"/>
<path d="M415.691 177.28C415.975 177.577 420.062 180.281 421.426 184.887C422.791 189.493 424.294 194.292 424.294 194.292L429.621 194.984L426.615 207.259C424.58 206.944 422.637 206.197 420.917 205.067C419.197 203.937 417.741 202.451 416.647 200.71C414.267 196.565 412.341 192.176 410.904 187.618C410.904 187.618 411.361 172.785 415.691 177.28Z" fill="#FF0001"/>
<path d="M427.792 194.776C427.792 194.776 425.527 189.728 425.229 189.659C424.931 189.589 420.56 188.061 420.56 188.061C420.432 188.416 420.432 188.805 420.56 189.161L418.995 189.361C418.995 189.361 419.23 190.329 419.764 190.461L419.196 190.959C419.481 191.333 419.845 191.64 420.263 191.858C420.423 191.937 420.6 191.978 420.779 191.978C420.958 191.978 421.134 191.937 421.295 191.858C421.295 191.858 421.094 192.224 421.987 192.791C422.881 193.358 424.426 194.174 424.426 194.174L427.792 194.776Z" fill="#FFBE9D"/>
<path d="M424.426 194.195C424.426 194.195 422.881 193.358 421.987 192.812C421.225 192.328 421.246 191.996 421.295 191.899C421.135 191.971 420.961 192.008 420.786 192.008C420.61 192.008 420.437 191.971 420.276 191.899C419.858 191.68 419.493 191.371 419.21 190.993V190.993L419.771 190.502C419.251 190.35 419.023 189.437 419.016 189.396L420.581 189.195C420.455 188.842 420.455 188.456 420.581 188.103V188.103C420.623 188.103 424.952 189.631 425.243 189.7C425.534 189.769 427.723 194.617 427.82 194.824L424.426 194.195ZM420.574 189.154L419.002 189.354C419.037 189.472 419.272 190.315 419.757 190.433L419.182 190.938C419.465 191.309 419.827 191.614 420.242 191.83C420.401 191.907 420.575 191.946 420.751 191.946C420.927 191.946 421.101 191.907 421.26 191.83H421.302V191.865C421.302 191.865 421.115 192.224 421.994 192.777C422.874 193.331 424.37 194.161 424.426 194.161L427.765 194.748C426.982 192.999 425.451 189.707 425.222 189.659C424.994 189.61 420.803 188.151 420.561 188.061C420.433 188.415 420.438 188.803 420.574 189.154V189.154Z" fill="#EB996E"/>
<path d="M420.699 189.181C421.622 189.624 422.579 189.994 423.56 190.288C423.955 190.433 424.356 190.544 424.668 190.689C424.943 190.827 425.169 191.044 425.319 191.311C425.583 191.782 425.68 192.121 425.721 192.107C425.702 191.799 425.615 191.498 425.465 191.228C425.319 190.916 425.076 190.659 424.772 190.495C424.404 190.331 424.027 190.188 423.643 190.067C422.687 189.695 421.702 189.399 420.699 189.181V189.181Z" fill="#EB996E"/>
<path d="M419.681 190.461C419.925 190.602 420.192 190.701 420.47 190.751C420.976 190.883 421.683 190.993 422.431 191.201C423.069 191.359 423.669 191.641 424.197 192.031C424.592 192.335 424.772 192.605 424.807 192.584C424.708 192.312 424.535 192.072 424.308 191.892C423.782 191.449 423.161 191.132 422.493 190.966C421.717 190.758 421.011 190.668 420.512 190.578C420.239 190.512 419.961 190.473 419.681 190.461Z" fill="#EB996E"/>
<path d="M423.685 192.764C423.403 192.441 423.043 192.196 422.639 192.052C422.235 191.908 421.801 191.869 421.378 191.941C421.378 192.01 421.932 192.051 422.562 192.28C423.193 192.508 423.643 192.819 423.685 192.764Z" fill="#EB996E"/>
<path d="M429.164 196.325L442.581 189.562L445.041 194.569C445.041 194.569 432.662 206.816 426.857 206.657" fill="#FFBE9D"/>
<path d="M421.004 182.141C421.024 182.477 421.084 182.809 421.184 183.13C421.322 183.732 421.537 184.569 421.787 185.482C422.036 186.394 422.271 187.217 422.479 187.812C422.553 188.142 422.669 188.46 422.826 188.76C422.801 188.422 422.738 188.088 422.639 187.764C422.5 187.162 422.285 186.332 422.043 185.419C421.8 184.506 421.558 183.684 421.35 183.089C421.271 182.761 421.155 182.443 421.004 182.141V182.141Z" fill="#263238"/>
<path d="M421.579 198.794C421.62 198.794 421.745 198.178 422.057 197.217C422.232 196.658 422.504 196.134 422.86 195.668C423.285 195.101 423.904 194.71 424.599 194.569C425.317 194.537 426.035 194.621 426.726 194.818L428.485 195.163C428.708 195.192 428.927 195.248 429.136 195.329C429.283 195.394 429.4 195.513 429.462 195.661C429.489 195.726 429.504 195.795 429.504 195.865C429.504 195.935 429.489 196.005 429.462 196.069C429.462 196.069 429.649 195.952 429.566 195.634C429.54 195.543 429.495 195.46 429.436 195.387C429.376 195.315 429.303 195.255 429.219 195.212C428.998 195.113 428.765 195.041 428.527 194.997L426.781 194.603C426.066 194.386 425.318 194.297 424.571 194.34C423.815 194.483 423.142 194.912 422.694 195.537C422.332 196.028 422.065 196.581 421.904 197.169C421.79 197.557 421.7 197.952 421.634 198.351C421.596 198.496 421.577 198.645 421.579 198.794V198.794Z" fill="#263238"/>
<path d="M419.778 196.104C420.149 195.457 420.643 194.889 421.232 194.43C421.881 194.038 422.58 193.735 423.311 193.531C423.079 193.494 422.842 193.511 422.618 193.58C422.076 193.696 421.562 193.919 421.108 194.237C420.652 194.554 420.278 194.973 420.013 195.461C419.885 195.654 419.805 195.874 419.778 196.104V196.104Z" fill="#263238"/>
<path d="M410.904 187.646C410.92 187.736 410.946 187.824 410.98 187.909C411.043 188.103 411.126 188.345 411.23 188.642L412.151 191.339C412.553 192.473 413.017 193.829 413.682 195.288C414.347 196.747 415.13 198.296 416.079 199.887C416.966 201.385 418.097 202.727 419.424 203.856C420.506 204.779 421.72 205.534 423.027 206.097C423.912 206.475 424.844 206.735 425.797 206.871C426.054 206.908 426.313 206.932 426.573 206.94H426.843C426.843 206.94 426.469 206.899 425.811 206.781C424.88 206.611 423.973 206.33 423.11 205.945C420.26 204.624 417.882 202.467 416.293 199.762C415.358 198.192 414.596 196.616 413.897 195.191C413.197 193.766 412.747 192.425 412.324 191.284C411.902 190.143 411.576 189.209 411.327 188.614L411.036 187.923C411.003 187.826 410.959 187.733 410.904 187.646Z" fill="#263238"/>
<path d="M414.763 177.605C414.763 177.674 415.788 178.04 416.958 178.739C418.129 179.437 418.967 180.163 419.037 180.122C418.505 179.472 417.848 178.935 417.104 178.545C416.394 178.079 415.598 177.759 414.763 177.605V177.605Z" fill="#263238"/>
<path d="M424.952 210.184C425.172 210.323 425.403 210.441 425.645 210.537C425.867 210.64 426.144 210.765 426.476 210.889C426.809 211.014 427.169 211.18 427.598 211.318C428.579 211.661 429.578 211.949 430.591 212.182C431.835 212.46 433.096 212.659 434.366 212.777C435.638 212.88 436.915 212.906 438.19 212.853C439.228 212.803 440.261 212.692 441.286 212.521C441.729 212.459 442.117 212.369 442.464 212.3C442.761 212.247 443.054 212.177 443.343 212.093C443.597 212.042 443.845 211.968 444.085 211.871C443.828 211.897 443.573 211.941 443.323 212.003C443.08 212.058 442.789 212.12 442.443 212.169C442.097 212.217 441.702 212.307 441.265 212.355C440.241 212.502 439.21 212.594 438.176 212.632C435.644 212.725 433.111 212.493 430.639 211.94C429.503 211.685 428.485 211.408 427.647 211.131C427.224 211.007 426.857 210.855 426.525 210.737C426.192 210.62 425.908 210.516 425.68 210.419C425.443 210.324 425.2 210.245 424.952 210.184V210.184Z" fill="#263238"/>
<path d="M435.862 217.148C436.792 217.026 437.703 216.794 438.578 216.456C439.478 216.196 440.346 215.832 441.161 215.37C439.384 215.925 437.617 216.513 435.862 217.134V217.148Z" fill="#263238"/>
<g opacity="0.3">
<path opacity="0.3" d="M446.1 205.198C443.03 205.8 439.877 205.847 436.791 205.336C435.669 204.995 434.497 204.852 433.327 204.914C432.398 205.141 431.5 205.48 430.653 205.924C429.061 206.577 427.331 206.827 425.618 206.651C423.906 206.475 422.263 205.878 420.838 204.914C421.724 206.871 423.795 208.102 425.915 208.476C428.061 208.745 430.239 208.549 432.302 207.902C433.529 207.504 434.798 207.251 436.084 207.148C437.719 207.1 439.319 207.632 440.933 207.66C442.825 207.718 444.686 207.16 446.232 206.069L446.1 205.198Z" fill="black"/>
</g>
<g opacity="0.3">
<path opacity="0.3" d="M440.794 215.841C440.103 216.995 439.151 217.971 438.015 218.691C436.878 219.412 435.588 219.857 434.248 219.99C433.672 220.06 433.087 220.011 432.53 219.845C432.251 219.763 431.992 219.625 431.768 219.439C431.544 219.254 431.36 219.025 431.228 218.766C431.846 218.361 432.534 218.077 433.258 217.929L440.711 215.855" fill="black"/>
</g>
<path d="M444.854 194.762C444.674 194.989 444.472 195.197 444.251 195.385C443.849 195.765 443.267 196.318 442.581 197.031C441.896 197.743 441.078 198.6 440.074 199.465C439.069 200.329 437.947 201.221 436.749 202.155C435.618 203.031 434.436 203.84 433.209 204.575C432.197 205.168 431.13 205.662 430.023 206.048C429.275 206.304 428.505 206.489 427.723 206.602C427.437 206.651 427.147 206.669 426.857 206.657C427.901 206.434 428.93 206.15 429.94 205.806C431.018 205.396 432.056 204.889 433.043 204.292C434.24 203.545 435.396 202.734 436.507 201.864C437.705 200.945 438.848 200.06 439.838 199.216C440.829 198.372 441.66 197.535 442.381 196.844C443.101 196.152 443.704 195.634 444.133 195.281C444.352 195.08 444.594 194.906 444.854 194.762Z" fill="#EB996E"/>
</g>
<defs>
<clipPath id="clip0_10_0">
<rect width="475" height="304" fill="white"/>
</clipPath>
</defs>
</svg>
