<svg width="67" height="67" viewBox="0 0 67 67" fill="none" xmlns="http://www.w3.org/2000/svg">
<path d="M11.7206 55.7033C11.7206 55.7033 15.355 57.9338 15.355 53.745C15.355 43.6793 15.3245 22.9918 15.3168 14.7997C15.3168 11.9172 17.7305 9.58414 20.7138 9.58244C25.1104 9.58244 31.1669 9.58244 34.8276 9.62737C39.6066 9.68163 44.11 10.8711 48.0581 13.4831C51.2796 15.6118 53.3931 18.646 54.4732 22.2305C56.4502 28.7863 54.5258 34.402 49.6171 39.1665C47.1128 41.5971 44.0676 43.2266 40.6993 44.3092C39.9881 44.5381 39.3014 44.3812 38.8673 43.6861C38.3052 42.7883 38.3586 41.8269 38.6045 40.8969C39.3158 38.1704 40.2212 35.5075 41.7099 33.0583C41.9836 32.6165 42.2864 32.1934 42.6162 31.7917C44.4109 29.5688 46.1768 27.3112 46.8229 24.522C47.1425 23.1444 47.1365 21.7879 46.4965 20.4688C45.5096 18.4426 43.1011 17.2472 40.4772 17.5015C39.6925 17.575 38.9185 17.736 38.1696 17.9814C37.2082 18.2976 36.3799 18.8343 35.9111 19.6939C34.4131 22.4407 31.9859 24.3974 29.707 26.4761C26.8204 29.1102 24.0269 31.8248 21.5226 34.8022C20.4968 36.0221 19.4337 37.2124 18.3858 38.4171C18.301 38.5163 18.2162 38.6189 18.1416 38.7249C17.9577 38.9851 17.7177 39.2666 17.9229 39.5803C18.1281 39.8939 18.5028 39.7846 18.8241 39.7329C19.3562 39.6421 19.8983 39.6259 20.4349 39.6845C22.8841 39.9669 25.3198 39.8956 27.7131 39.3022C30.7651 38.546 33.2677 36.9191 35.3846 34.7123C36.2994 33.7586 37.0285 32.6709 37.85 31.6501C38.0772 31.3678 38.301 30.8168 38.7418 31.0804C39.2047 31.3585 38.8953 31.8587 38.6732 32.2088C37.7406 33.6712 36.7233 35.076 35.8526 36.5766C34.6174 38.7087 33.6789 40.9494 32.8633 43.2605C32.2004 45.1383 31.6883 47.0305 31.4569 48.9906C31.2025 51.1346 30.9855 53.2906 31.6018 55.4142C34.0426 61.9481 48.3768 60.8782 48.3768 60.8782C48.3768 60.8782 43.7819 63.8641 38.2823 64.9848C33.5992 65.9386 28.2048 65.1332 25.0307 64.3643C18.1306 62.6933 11.7206 55.7033 11.7206 55.7033Z" fill="#FF0001"/>
<path d="M33.5 2.6349C50.5463 2.6349 64.3651 16.4537 64.3651 33.5C64.3651 50.5463 50.5463 64.3651 33.5 64.3651C16.4537 64.3651 2.6349 50.5463 2.6349 33.5C2.6349 16.4537 16.4537 2.6349 33.5 2.6349ZM33.5 0C15.0277 0 0 15.0277 0 33.5C0 51.9723 15.0277 67 33.5 67C51.9723 67 67 51.9689 67 33.5C67 15.0311 51.9689 0 33.5 0Z" fill="#FF0001"/>
</svg>
